<svg width="276" height="32" viewBox="0 0 276 32" fill="none" xmlns="http://www.w3.org/2000/svg">
<path d="M0.683167 31.3557V0.529957H7.09225V26.0561H22.4299V31.3557H0.683167Z" fill="#D27487"/>
<path d="M31.1988 24.8196V19.52H49.0117V24.8196H31.1988ZM34.9558 0.529957H44.459L52.8571 31.3557H46.3155L41.5418 12.8955L39.6853 5.16706L37.8289 12.8955L32.9669 31.3557H26.602L34.9558 0.529957Z" fill="#D27487"/>
<path d="M64.3086 31.3557V5.82951H54.9822V0.529957H80.044V5.82951H70.7176V31.3557H64.3086Z" fill="#D27487"/>
<path d="M93.0562 31.3557V5.82951H83.7299V0.529957H108.792V5.82951H99.4655V31.3557H93.0562Z" fill="#D27487"/>
<path d="M114.025 31.3557V0.529957H136.655V5.82951H120.478V12.7631H131.174V18.0626H120.478V26.0561H136.832V31.3557H114.025Z" fill="#D27487"/>
<path d="M180.098 31.8856C177.328 31.8856 174.941 31.2232 172.937 29.8983C170.933 28.5734 169.387 26.7186 168.296 24.3337C167.206 21.9195 166.661 19.1225 166.661 15.9428C166.661 12.7042 167.22 9.89252 168.34 7.50769C169.46 5.1229 171.036 3.28278 173.07 1.98733C175.133 0.662443 177.549 0 180.318 0C182.499 0 184.503 0.426907 186.33 1.28072C188.157 2.13454 189.645 3.37111 190.794 4.99041C191.973 6.58027 192.636 8.50871 192.784 10.7757H185.756C185.578 9.127 185.019 7.80211 184.076 6.80108C183.133 5.80006 181.88 5.29955 180.318 5.29955C178.963 5.29955 177.755 5.71174 176.695 6.5361C175.633 7.36048 174.794 8.56761 174.175 10.1575C173.585 11.7473 173.29 13.6758 173.29 15.9428C173.29 18.2098 173.585 20.1383 174.175 21.7282C174.764 23.318 175.56 24.5252 176.562 25.3495C177.593 26.1738 178.772 26.5861 180.098 26.5861C181.188 26.5861 182.146 26.3653 182.971 25.9236C183.795 25.4525 184.458 24.7901 184.96 23.9363C185.49 23.0824 185.814 22.0667 185.932 20.889H192.916C192.709 23.1267 192.061 25.0698 190.971 26.7186C189.88 28.3673 188.422 29.648 186.595 30.5608C184.768 31.444 182.603 31.8856 180.098 31.8856Z" fill="#D27487"/>
<path d="M199.916 24.8196V19.52H217.729V24.8196H199.916ZM203.674 0.529957H213.177L221.575 31.3557H215.033L210.259 12.8955L208.404 5.16706L206.547 12.8955L201.684 31.3557H195.319L203.674 0.529957Z" fill="#D27487"/>
<path d="M225.836 31.3557V0.529957H248.776V5.82951H232.245V12.7631H243.294V18.0626H232.245V31.3557H225.836Z" fill="#D27487"/>
<path d="M253.052 31.3557V0.529957H275.683V5.82951H259.506V12.7631H270.203V18.0626H259.506V26.0561H275.861V31.3557H253.052Z" fill="#D27487"/>
</svg>
