<svg width="145" height="45" viewBox="0 0 145 45" fill="none" xmlns="http://www.w3.org/2000/svg">
<path d="M20.2413 8.82887L21.3118 8.60048C21.5831 8.60048 21.8115 8.65758 21.9685 8.77178C22.1255 8.88597 22.2112 9.00017 22.2112 9.10009C22.2112 9.20001 22.1826 9.35703 22.1398 9.5426C22.097 9.72817 21.6973 11.6409 20.955 15.2524C20.2127 18.8638 19.6703 21.5617 19.3277 23.3318C20.9835 21.0764 22.9249 18.3071 25.1374 15.0097C27.35 11.7123 28.649 9.52833 29.0201 8.44346C29.1343 8.10087 29.2913 7.84393 29.4769 7.65836C29.6625 7.47279 29.8338 7.3586 29.9765 7.33005C30.1192 7.3015 30.3476 7.27295 30.6474 7.27295C30.9472 7.27295 31.304 7.34432 31.718 7.4728C32.132 7.60127 32.3461 7.81538 32.3461 8.12942C32.3461 8.7004 31.4896 10.3705 29.7909 13.1112C28.0923 15.8519 26.1367 18.7639 23.9384 21.8472C21.7401 24.9305 19.913 27.3715 18.4427 29.17C18.1857 29.4841 17.8574 29.6554 17.4863 29.6554C17.1151 29.6554 16.7155 29.584 16.3015 29.4555C15.8875 29.3271 15.6734 29.0987 15.6734 28.7561C15.6734 27.6855 16.6155 22.5181 18.4998 13.2825C16.8867 15.3666 14.9311 18.2786 12.6329 22.0042C10.2348 25.8584 8.87874 28.2565 8.5647 29.17C8.39341 29.7268 8.19357 30.0551 7.96517 30.1407C7.80815 30.2121 7.63685 30.2406 7.46556 30.2406L6.30932 30.3691C6.08093 30.3691 5.88108 30.312 5.68124 30.1835C5.49567 30.0551 5.39575 29.9266 5.39575 29.7839C5.39575 29.3984 5.93819 28.2279 7.00878 26.2866C8.07937 24.3453 9.3498 22.2326 10.7915 19.9487C12.2333 17.6648 13.7321 15.4522 15.3023 13.2968C16.8725 11.1413 18.0858 9.68535 18.9423 8.95735C19.1136 8.80033 19.3134 8.72895 19.5418 8.72895L20.2413 8.82887Z" fill="#292F36"/>
<path d="M37.3993 18.5072C38.1416 18.5072 38.5127 18.7642 38.5127 19.2638C38.5127 19.535 38.4556 19.7348 38.3272 19.8633C38.1987 19.9918 37.9275 20.4057 37.5135 21.1337C37.0996 21.8475 36.6428 22.761 36.1432 23.8887C35.6435 25.0021 35.3152 25.9585 35.1725 26.7436C35.144 26.8435 35.1297 26.972 35.1297 27.1576C35.1297 27.7 35.2724 27.957 35.5722 27.957C35.872 27.957 36.2145 27.8142 36.6142 27.543C37.0139 27.2575 37.3708 26.972 37.6848 26.6437C37.9988 26.3297 38.2986 26.0013 38.5984 25.673C38.8981 25.3447 39.0695 25.1449 39.1266 25.1021C39.1837 25.0592 39.2693 25.0307 39.3835 25.0307C39.5691 25.0307 39.6833 25.1734 39.7261 25.4589C39.7689 25.7444 39.7832 26.0299 39.7832 26.3439C39.7832 26.658 39.7546 26.8578 39.6975 26.972C39.412 27.5287 38.7982 28.1996 37.8276 28.9847C36.8712 29.7698 35.9862 30.1552 35.2011 30.1552C34.416 30.1552 33.8307 29.9126 33.4738 29.4415C33.117 28.9704 32.9171 28.428 32.9171 27.857C32.9171 27.2718 33.0171 26.7722 33.2169 26.3297C32.4032 27.386 31.4754 28.271 30.4333 29.0133C29.377 29.7413 28.5348 30.1124 27.8639 30.1124C27.193 30.1124 26.6649 29.9126 26.2366 29.5129C25.6942 29.0133 25.4373 28.3281 25.4373 27.4431C25.4373 26.5581 25.6371 25.673 26.0368 24.7737C26.4365 23.8887 26.9504 23.0608 27.5927 22.3328C28.2351 21.5905 28.9488 20.9196 29.7196 20.3201C31.3326 19.0496 32.8315 18.4216 34.2018 18.4216C34.73 18.4216 35.1582 18.5072 35.4865 18.6785C35.8149 18.8498 36.029 19.0782 36.1146 19.3351C36.343 18.9783 36.5429 18.7642 36.7142 18.6642C36.8426 18.55 37.0853 18.5072 37.3993 18.5072ZM35.458 20.1345C33.7879 20.1345 32.0606 21.0624 30.2763 22.918C29.6482 23.5889 29.063 24.3741 28.5206 25.3019C27.9781 26.2297 27.7212 26.8578 27.7212 27.2004C27.7212 27.543 27.8211 27.7143 28.021 27.7143C28.2922 27.7143 29.0487 27.1719 30.3049 26.1013C31.561 25.0307 32.389 24.2313 32.7887 23.7174C33.2454 23.1464 34.1305 21.9474 35.458 20.1345Z" fill="#292F36"/>
<path d="M48.505 10.7703L49.1045 10.913C49.1901 10.913 49.2758 10.9558 49.3329 11.0415C49.4043 11.1271 49.4328 11.2128 49.4328 11.2841C49.4328 11.3555 49.3329 11.5696 49.1188 11.9122C48.9047 12.2548 48.6763 12.6402 48.3908 13.0685C48.1053 13.4967 47.9625 13.7394 47.9483 13.7822C48.7048 13.7251 49.2472 13.6965 49.5613 13.6965C49.8753 13.6965 50.0894 13.7251 50.2179 13.7679C50.3321 13.8107 50.4748 13.9392 50.6176 14.1391C50.7746 14.3389 50.9031 14.4959 51.0316 14.5958C51.16 14.6958 51.2171 14.8528 51.2171 15.0526C51.2171 15.2525 51.0887 15.438 50.846 15.5665C50.6033 15.7093 50.3321 15.7949 50.0466 15.8235C47.777 16.0518 46.5351 16.166 46.3067 16.1803C45.5216 17.3937 44.4082 19.2779 42.995 21.833C41.5818 24.3882 40.8253 26.0012 40.7396 26.6435C40.6968 26.9433 40.6825 27.1717 40.6825 27.3573C40.6825 27.7427 40.8824 27.9283 41.2821 27.9283C41.6817 27.9283 42.1242 27.7712 42.6096 27.4715C43.0949 27.1574 43.5517 26.8291 43.9514 26.4723C45.0505 25.5016 45.6358 25.002 45.7072 25.002C45.9641 25.002 46.0926 25.4445 46.0926 26.3152C46.0926 26.7863 45.8785 27.2145 45.4359 27.5999C44.451 28.4421 43.6231 29.0845 42.9522 29.5127C42.2813 29.941 41.6104 30.1551 40.9252 30.1551C40.7824 30.1551 40.6397 30.1408 40.5112 30.1123C39.7261 29.9695 39.1551 29.684 38.7983 29.2558C38.4271 28.8276 38.2559 28.2566 38.2559 27.5428C38.2559 26.8291 38.47 25.9441 38.8982 24.9163C39.3264 23.8886 39.8546 22.7894 40.497 21.6332C41.5533 19.7347 42.6096 17.9646 43.6516 16.3088L43.0949 16.3802C41.9672 16.5086 41.3106 16.5657 41.125 16.5657H40.9966C40.7111 16.5657 40.4399 16.5086 40.1829 16.3944C39.926 16.2802 39.7832 16.1375 39.7832 15.9805C39.7832 15.8092 39.8546 15.6522 39.9974 15.4951C40.1401 15.3381 40.2257 15.2096 40.2543 15.124C40.3257 14.9099 40.5826 14.6672 41.0251 14.4103C41.4676 14.1533 41.7959 14.0106 42.0243 13.9963C42.2527 13.982 42.4668 13.9678 42.681 13.9535C42.8951 13.9392 43.1235 13.9392 43.3804 13.9249C43.6374 13.9107 43.8372 13.9107 43.9799 13.8964L45.2932 13.8393C46.1068 12.6117 46.6778 11.8123 46.9776 11.4697C47.2916 11.1129 47.4629 10.9273 47.5058 10.8987C47.5486 10.8702 47.6485 10.8416 47.8055 10.8416L48.505 10.7703Z" fill="#292F36"/>
<path d="M57.2836 25.0306C57.4692 25.0306 57.5834 25.1734 57.6262 25.459C57.669 25.7445 57.6833 26.0299 57.6833 26.344C57.6833 26.658 57.6547 26.8579 57.5976 26.972C57.3121 27.5145 56.6984 28.1853 55.742 28.9704C54.7856 29.7555 53.872 30.1552 53.0155 30.1552C52.4874 30.1552 52.002 29.9982 51.5452 29.6841C51.1027 29.3701 50.8743 28.8134 50.8743 28.0283C50.8743 27.2432 51.0885 26.4581 51.5024 25.7015C49.0758 28.742 47.1915 30.2551 45.8069 30.2551C45.2644 30.2551 44.8219 30.0554 44.4794 29.67C44.1368 29.2845 43.9797 28.8848 43.9797 28.4565C43.9797 28.0426 44.0368 27.6144 44.151 27.1719C44.2652 26.7294 44.3937 26.3296 44.5222 25.9728C44.6506 25.6159 44.8505 25.1877 45.1074 24.6738C45.3644 24.1599 45.5642 23.7888 45.6784 23.5462C45.7926 23.3035 46.0067 22.9608 46.2922 22.4898C46.5777 22.0187 46.9346 21.3763 47.3913 20.577C47.8481 19.7776 48.2193 19.1781 48.519 18.7927C48.8188 18.4072 49.1043 18.2074 49.3898 18.2074C49.6753 18.2074 49.9179 18.3216 50.1321 18.55C50.3462 18.7784 50.4604 18.9782 50.4604 19.121C50.4604 19.2637 50.1321 19.9204 49.4754 21.091C47.5484 24.5882 46.5777 26.6151 46.5777 27.2004C46.5777 27.3431 46.6348 27.4145 46.7347 27.4145C47.2058 27.4145 48.3763 26.4011 50.232 24.3741C52.0877 22.3471 53.1725 21.048 53.4723 20.4771C53.7721 19.9061 54.0433 19.4207 54.3288 19.0353C54.6 18.6499 54.8141 18.4072 54.9569 18.3216C55.3708 18.0504 55.9132 17.9077 56.5842 17.8792C56.6983 17.8792 56.7697 17.8791 56.8268 17.8934C56.8839 17.9076 56.9553 17.9933 57.0267 18.136C57.098 18.2788 57.1409 18.4072 57.1409 18.5072C57.0552 18.7784 56.6698 19.5064 55.9703 20.6912C55.2852 21.876 54.8998 22.5469 54.8284 22.6896C53.6722 25.0735 53.1012 26.6294 53.1012 27.3431C53.1012 27.7571 53.2582 27.9569 53.5722 27.9569C54.1432 27.8855 54.8284 27.4288 55.6278 26.6008C55.9275 26.3011 56.213 25.9871 56.4985 25.673C56.784 25.359 56.9696 25.1734 57.0267 25.1306C57.098 25.0592 57.1837 25.0306 57.2836 25.0306Z" fill="#292F36"/>
<path d="M61.5232 21.6475C63.8214 19.0352 65.7913 17.722 67.4044 17.722C67.804 17.722 68.1324 17.8362 68.3893 18.0788C68.6462 18.3215 68.7747 18.6213 68.7747 19.0067C68.7747 19.3921 68.5035 20.0202 67.9611 20.9195C67.4186 21.8045 66.919 22.561 66.4622 23.1749C66.2196 23.4889 65.9483 23.6459 65.6343 23.6459C65.3345 23.6459 65.0919 23.5317 64.9206 23.3033C64.7493 23.0749 64.6637 22.818 64.6637 22.5182C64.6637 21.8473 65.0205 21.0765 65.7485 20.2343L65.72 20.2058C65.3916 20.2343 64.6065 20.8767 63.3218 22.1043C62.0514 23.3461 60.9665 24.4596 60.0672 25.4302C59.1822 26.4152 58.2115 27.6 57.1552 29.0131C56.8555 29.4271 56.5985 29.6412 56.3844 29.6412C56.1703 29.6412 55.8991 29.5698 55.5565 29.4414C55.2139 29.3129 54.9998 29.213 54.9284 29.1559C54.857 29.0988 54.8142 28.9989 54.8142 28.8561C54.8142 28.7276 54.857 28.5564 54.9284 28.3851C54.9998 28.1995 55.1568 27.9425 55.3566 27.6142C55.5565 27.2859 55.8848 26.7435 56.313 26.0012C56.7413 25.2589 57.3979 24.1313 58.2972 22.6324C59.1965 21.1336 59.7247 20.22 59.9102 19.906C60.2814 19.2636 60.5811 18.7926 60.8238 18.5071C61.2663 17.9504 62.0086 17.6792 63.0506 17.6792C63.279 17.6792 63.4075 17.8219 63.4075 18.1217C63.4075 18.5785 62.9792 19.4492 62.1371 20.7054L61.5232 21.6475Z" fill="#292F36"/>
<path d="M77.2681 18.6785C77.2681 19.3209 77.0112 19.8919 76.483 20.3772C75.9549 20.8625 75.3696 21.1052 74.6987 21.1052C74.4846 21.1052 74.3419 21.0481 74.2705 20.9482C74.1991 20.8483 74.1705 20.7055 74.1705 20.5485C74.1705 20.3915 74.1848 20.2202 74.2277 20.0631C73.8708 20.1773 73.4854 20.3629 73.0571 20.6056C72.6289 20.8482 72.1007 21.2051 71.4727 21.6904C70.8446 22.1758 70.5306 22.5184 70.5306 22.761C70.5306 22.8324 70.6447 22.8752 70.8731 22.8752C71.1015 22.8752 71.4584 22.7896 71.9295 22.6326C72.4005 22.4755 72.7431 22.3899 72.9287 22.3899C73.1142 22.3899 73.2427 22.4042 73.2998 22.4184C73.4283 22.4898 73.5568 22.6326 73.7138 22.861C73.8565 23.0894 73.9279 23.2749 73.9279 23.4034C73.9279 23.5319 73.7994 23.7032 73.5425 23.9173C73.2855 24.1314 73 24.2884 72.686 24.4026C72.3577 24.5168 72.1436 24.6025 72.0437 24.6595C69.9881 25.8158 68.9603 26.6009 68.9603 27.0291C68.9603 27.7857 69.6027 28.1711 70.9017 28.1711C71.7296 28.1711 72.5718 27.9141 73.3997 27.386C74.1135 26.9435 74.7558 26.4867 75.3268 26.0156C75.8978 25.5588 76.2546 25.2734 76.4117 25.1592C76.5687 25.045 76.6829 25.0021 76.7543 25.0021C77.0112 25.0021 77.1397 25.2876 77.1397 25.8586C77.1397 26.4296 77.1111 26.8007 77.0397 26.972C76.9684 27.1576 76.7828 27.3717 76.4545 27.6429C74.3704 29.3416 72.3862 30.1981 70.5306 30.1981C69.5313 30.1981 68.7462 30.0553 68.1467 29.7841C67.0476 29.2845 66.5051 28.528 66.5051 27.5002C66.5051 26.1584 67.433 25.1306 69.3029 24.4454C68.9318 24.2741 68.6891 24.0743 68.5892 23.8031C68.475 23.5461 68.4322 23.1322 68.4322 22.5612C68.4322 21.9902 68.7034 21.3907 69.2316 20.7483C69.7597 20.106 70.4163 19.5778 71.1872 19.1781C72.9001 18.2503 74.4418 17.7935 75.7836 17.7935C76.1119 17.7935 76.4259 17.8649 76.7685 18.0219C77.1111 18.1789 77.2681 18.393 77.2681 18.6785Z" fill="#292F36"/>
<path d="M110.585 8.7435H110.77C110.828 8.7435 110.87 8.7435 110.885 8.75777C110.899 8.77204 110.913 8.77205 110.942 8.78632C110.97 8.78632 110.985 8.80059 111.013 8.82914C111.056 8.87197 111.127 8.91479 111.213 8.95761C111.327 9.04326 111.384 9.14318 111.384 9.25738C111.384 9.37158 111.27 9.61424 111.042 9.98538C110.813 10.3565 110.228 11.2558 109.272 12.7118C107.088 16.052 105.132 19.1639 103.405 22.0188C100.421 26.9863 98.9083 29.4844 98.8798 29.5129C98.8512 29.5415 98.8369 29.57 98.8226 29.5986C98.8084 29.6557 98.7798 29.6842 98.7084 29.6842L98.5086 29.6414L98.1089 29.7413L97.8805 29.6985L97.6379 29.7413H97.5522L96.7386 29.8555C96.2532 29.8555 96.0106 29.6842 96.0106 29.3559C96.0106 29.2132 96.0534 29.0419 96.139 28.842C96.4388 28.1283 97.9662 25.5446 100.707 21.0624C98.9083 21.1052 97.124 21.1338 95.3682 21.1338L92.2278 21.1195C91.7139 21.9474 91.0002 23.1179 90.1009 24.6453C88.1596 27.9713 87.1318 29.6414 87.0033 29.6699C86.8749 29.6985 86.7749 29.727 86.6893 29.727C86.6036 29.727 86.5323 29.6842 86.4752 29.5843C86.4038 29.4987 86.361 29.4415 86.3324 29.4415C86.3039 29.4415 86.261 29.4558 86.1754 29.4986C86.104 29.5415 85.9898 29.5557 85.8328 29.5557L85.4902 29.5415L85.3618 29.4558C85.3475 29.4558 85.3332 29.4701 85.3189 29.4986C85.3047 29.5272 85.2618 29.5415 85.2047 29.5415C84.7908 29.5415 84.5767 29.3702 84.5767 29.0133C84.5767 28.7849 84.6623 28.4709 84.8193 28.0855C84.9906 27.7001 85.2047 27.2861 85.476 26.8436C85.7472 26.4011 86.4323 25.3305 87.56 23.6604C88.6734 21.9902 89.2302 21.148 89.2302 21.1338C89.0446 21.1195 88.8305 21.1195 88.5878 21.1052C88.0882 21.1052 87.7456 21.0909 87.5315 21.0481C86.9748 20.9482 86.5894 20.4914 86.3895 19.6778C86.2753 19.2781 86.2325 19.0211 86.2468 18.8927C86.2468 18.6357 86.361 18.493 86.5894 18.493L86.9748 18.5929C87.1746 18.6072 87.6314 18.6215 88.3737 18.6643C89.116 18.7071 89.6441 18.7214 89.9724 18.7214L90.8004 18.6928C92.0708 16.7087 93.5839 14.4533 95.3539 11.941C94.0692 12.9973 92.6418 13.5254 91.0716 13.5254C90.3293 13.5254 89.6869 13.3541 89.1588 12.9973C88.6163 12.6404 88.3594 12.1836 88.3594 11.6412C88.3594 11.0988 88.5593 10.6705 88.9732 10.3422C89.3872 10.0282 89.7726 9.87118 90.1437 9.87118C90.5149 9.87118 90.7004 9.92828 90.7004 10.0425C90.7004 10.0853 90.6433 10.1281 90.5434 10.1709C90.4435 10.228 90.3864 10.2709 90.3864 10.3137C90.3864 10.4707 90.5577 10.6134 90.9003 10.7276C91.2429 10.8418 91.6283 10.9132 92.0565 10.9132C92.4847 10.9132 92.9986 10.7847 93.6267 10.5421C94.2548 10.2994 94.8971 9.97111 95.568 9.58569C96.5102 9.04326 97.2524 8.58647 97.7949 8.22961C98.1089 8.07259 98.3944 8.00122 98.6799 8.00122C98.9654 8.00122 99.151 8.02977 99.2794 8.10114C99.4079 8.15824 99.4935 8.22961 99.5506 8.28671C99.6077 8.34381 99.6791 8.42946 99.7362 8.52938C99.8076 8.6293 99.8647 8.71495 99.9361 8.75777C99.9932 8.81487 100.036 8.87197 100.036 8.94334C100.036 9.01471 99.9932 9.11463 99.9218 9.27165C99.8504 9.4144 99.4793 10.0139 98.8084 11.056C98.1375 12.098 97.2667 13.4255 96.2104 15.0385C95.1541 16.6516 94.3833 17.8364 93.8979 18.6072C96.5102 18.6072 99.3223 18.5644 102.348 18.4644C106.031 12.6547 107.973 9.61424 108.172 9.32875C108.372 9.04326 108.558 8.85769 108.729 8.77204C108.9 8.6864 109.1 8.64357 109.343 8.64357L110.585 8.7435Z" fill="#292F36"/>
<path d="M115.353 18.4786C115.652 18.4786 115.952 18.6071 116.252 18.8783C116.566 19.1495 116.709 19.5492 116.709 20.0916C116.709 20.634 116.523 21.3335 116.138 22.2042C115.752 23.0607 115.238 23.9457 114.567 24.845C113.911 25.7301 113.169 26.5723 112.383 27.3574C111.584 28.1425 110.728 28.7848 109.814 29.2844C108.886 29.784 108.058 30.041 107.302 30.041C106.545 30.041 105.946 29.7983 105.489 29.3272C105.032 28.8562 104.804 28.1995 104.804 27.3574C104.804 26.5152 105.018 25.573 105.432 24.5595C105.846 23.5318 106.374 22.6325 107.031 21.8474C107.687 21.0623 108.387 20.3628 109.157 19.7347C110.742 18.45 112.141 17.822 113.34 17.822C113.882 17.822 114.282 17.9504 114.553 18.2217C114.653 18.3073 114.696 18.3929 114.696 18.45V18.5357C114.853 18.4786 115.067 18.4786 115.353 18.4786ZM113.882 20.4199H113.782C113.44 20.4199 113.268 20.1773 113.268 19.6777C112.555 19.906 111.813 20.32 111.027 20.9053C110.242 21.4905 109.543 22.19 108.929 22.9893C107.673 24.5881 107.045 25.9442 107.031 27.0433C107.031 27.5857 107.23 27.857 107.63 27.857C108.03 27.857 108.629 27.5857 109.414 27.0719C110.199 26.558 110.985 25.8014 111.77 24.8165C112.541 23.8458 113.126 22.9893 113.511 22.2756C113.897 21.5619 114.096 21.0766 114.096 20.8053C114.082 20.5484 114.011 20.4199 113.882 20.4199Z" fill="#292F36"/>
<path d="M116.395 29.7125L115.681 29.684H115.424C115.324 29.6554 115.224 29.5983 115.11 29.5127C114.996 29.427 114.91 29.3557 114.853 29.3271C114.796 29.2986 114.767 29.2129 114.767 29.113C114.767 29.0131 114.81 28.8275 114.882 28.5848C116.78 24.4024 118.621 21.0479 120.406 18.5498C120.606 18.2786 120.92 18.0645 121.348 17.9217C121.776 17.779 122.204 17.7076 122.618 17.7076C122.861 17.7076 122.989 17.8932 122.989 18.2786C122.989 18.3928 122.947 18.5356 122.875 18.7069C122.804 18.8924 122.604 19.1779 122.29 19.5919C121.976 20.0058 121.605 20.4769 121.177 20.9908C120.748 21.5047 120.506 21.8187 120.449 21.9043C121.79 20.5197 122.989 19.492 124.074 18.8068C125.159 18.1359 125.93 17.7933 126.415 17.7933C126.901 17.7933 127.272 17.936 127.529 18.2072C127.786 18.4785 127.914 18.7782 127.914 19.0923C127.914 19.4063 127.886 19.6775 127.843 19.8774C127.8 20.0915 127.714 20.3056 127.6 20.534C127.486 20.7624 127.386 20.9622 127.3 21.1192C127.215 21.2763 127.072 21.4904 126.886 21.7473C126.687 22.0043 126.558 22.1898 126.487 22.2898C126.415 22.3897 126.258 22.5752 126.03 22.8465C125.802 23.1177 125.673 23.2747 125.659 23.3032C125.93 23.032 126.315 22.6323 126.801 22.0899C127.286 21.5475 127.7 21.105 128.043 20.7481C128.385 20.3912 128.799 19.9773 129.313 19.5205C129.827 19.0637 130.298 18.6926 130.726 18.4214C131.783 17.7647 132.853 17.4221 133.938 17.4221C134.309 17.4221 134.623 17.5363 134.88 17.779C135.137 18.0217 135.266 18.2929 135.266 18.6212C135.266 18.9495 134.866 19.7346 134.081 20.9622C133.296 22.1898 132.496 23.4317 131.711 24.6736C130.926 25.9155 130.526 26.7006 130.526 27.0289C130.526 27.4714 130.612 27.7426 130.769 27.8283C130.94 27.9139 131.14 27.9425 131.369 27.9282C131.597 27.9139 131.94 27.7569 132.354 27.4714C132.782 27.1859 133.153 26.9004 133.481 26.5864C134.024 26.1011 134.509 25.63 134.98 25.1732C135.08 25.0876 135.18 25.0447 135.308 25.0447C135.494 25.0447 135.608 25.1875 135.651 25.473C135.694 25.7585 135.708 26.044 135.708 26.358C135.708 26.672 135.68 26.8719 135.622 26.9861C135.337 27.5285 134.709 28.1994 133.752 28.9988C132.782 29.7839 131.854 30.1836 130.969 30.1836C130.855 30.1836 130.783 30.1836 130.741 30.1693C129.741 30.0694 129.042 29.7982 128.656 29.3414C128.271 28.8846 128.085 28.3422 128.085 27.7284C128.085 27.1146 128.3 26.3437 128.728 25.4587C129.156 24.5737 129.613 23.76 130.127 23.0463C130.641 22.3326 131.097 21.676 131.526 21.0907C131.954 20.5054 132.168 20.1914 132.168 20.1486C132.168 20.1058 132.125 20.0772 132.054 20.0772C131.754 20.0772 131.083 20.5625 130.027 21.5475C128.242 23.2176 126.701 24.8306 125.402 26.3723C125.059 26.7862 124.246 27.814 122.975 29.4841C122.832 29.684 122.59 29.7839 122.276 29.7839C121.962 29.7839 121.633 29.7268 121.291 29.5983C120.948 29.4698 120.777 29.3128 120.777 29.1273C120.777 29.0273 121.548 27.657 123.104 25.0162C124.66 22.3754 125.43 20.9337 125.43 20.7053C125.43 20.4626 125.288 20.3484 125.002 20.3484C124.717 20.3484 124.117 20.7767 123.218 21.6331C120.748 23.9884 118.836 26.3437 117.48 28.6705C117.394 28.8132 117.223 29.0273 116.966 29.3128C116.709 29.5983 116.48 29.7125 116.395 29.7125Z" fill="#292F36"/>
<path d="M144.701 18.6785C144.701 19.3209 144.444 19.8919 143.916 20.3772C143.388 20.8625 142.802 21.1052 142.132 21.1052C141.917 21.1052 141.775 21.0481 141.703 20.9482C141.632 20.8483 141.603 20.7055 141.603 20.5485C141.603 20.3915 141.618 20.2202 141.66 20.0631C141.304 20.1773 140.918 20.3629 140.49 20.6056C140.062 20.8482 139.534 21.2051 138.906 21.6904C138.277 22.1758 137.963 22.5184 137.963 22.761C137.963 22.8324 138.078 22.8752 138.306 22.8752C138.534 22.8752 138.891 22.7896 139.362 22.6326C139.833 22.4755 140.176 22.3899 140.362 22.3899C140.547 22.3899 140.676 22.4042 140.733 22.4184C140.861 22.4898 140.99 22.6326 141.147 22.861C141.289 23.0894 141.361 23.2749 141.361 23.4034C141.361 23.5319 141.232 23.7032 140.975 23.9173C140.718 24.1314 140.433 24.2884 140.119 24.4026C139.791 24.5168 139.576 24.6025 139.476 24.6595C137.421 25.8158 136.393 26.6009 136.393 27.0291C136.393 27.7857 137.036 28.1711 138.335 28.1711C139.162 28.1711 140.005 27.9141 140.833 27.386C141.546 26.9435 142.189 26.4867 142.76 26.0156C143.331 25.5588 143.687 25.2734 143.845 25.1592C144.002 25.045 144.116 25.0021 144.187 25.0021C144.444 25.0021 144.573 25.2876 144.573 25.8586C144.573 26.4296 144.544 26.8007 144.473 26.972C144.401 27.1576 144.216 27.3717 143.887 27.6429C141.803 29.3416 139.819 30.1981 137.963 30.1981C136.964 30.1981 136.179 30.0553 135.58 29.7841C134.48 29.2845 133.938 28.528 133.938 27.5002C133.938 26.1584 134.866 25.1306 136.736 24.4454C136.365 24.2741 136.122 24.0743 136.022 23.8031C135.908 23.5461 135.865 23.1322 135.865 22.5612C135.865 21.9902 136.136 21.3907 136.664 20.7483C137.193 20.106 137.849 19.5778 138.62 19.1781C140.333 18.2503 141.875 17.7935 143.216 17.7935C143.545 17.7935 143.859 17.8649 144.201 18.0219C144.544 18.1789 144.701 18.393 144.701 18.6785Z" fill="#292F36"/>
<path d="M0 33.6665C3.7542 35.2367 7.57977 36.4501 11.4767 37.3779C15.3451 38.3486 19.2849 39.0338 23.2247 39.462C25.1946 39.7332 27.1787 39.7618 29.1343 39.9473C31.1185 39.9616 33.0884 40.1186 35.0583 40.0044L38.0131 39.9331C38.998 39.9188 39.983 39.7903 40.9679 39.7332C41.9529 39.6476 42.9378 39.6047 43.9085 39.4763L46.8347 39.0623C50.7602 38.6341 54.5715 37.7205 58.3686 36.6214C62.2084 35.565 65.8342 34.1661 69.674 32.7101C73.5995 31.2684 77.8533 30.3263 82.1642 30.7831C84.2911 31.0543 86.4323 31.7395 88.1738 32.9956C89.9296 34.2375 91.1857 36.0076 91.9851 37.8632C90.786 36.2074 89.2872 34.8513 87.56 34.0091C85.8328 33.1669 83.9343 32.8243 82.05 32.8814C78.2387 32.9385 74.4845 34.209 70.9587 35.8077C67.3758 37.5778 63.4931 39.1765 59.5819 40.504C55.6421 41.7745 51.5739 42.788 47.4485 43.3018C39.2407 44.3867 30.833 44.401 22.7251 42.7594C18.6568 42.0171 14.6885 40.8609 10.8486 39.3906C7.03733 37.8632 3.31169 36.0789 0 33.6665Z" fill="#292F36"/>
<path d="M136.507 9.89958C133.324 8.5435 130.084 7.48718 126.801 6.65926C123.532 5.78851 120.22 5.17471 116.894 4.74648C115.238 4.48953 113.554 4.43244 111.898 4.23259C110.228 4.18977 108.572 4.01847 106.902 4.08985C106.074 4.10412 105.232 4.10412 104.404 4.08985C103.576 4.08985 102.734 4.17549 101.906 4.20404C101.078 4.26114 100.236 4.27542 99.4079 4.36106L96.9242 4.66083C93.5982 4.93204 90.3722 5.61722 87.1461 6.45942C83.8773 7.24452 80.7797 8.35793 77.4823 9.47135C74.0992 10.599 70.4306 11.2842 66.7478 10.7703C64.9349 10.4706 63.1078 9.82821 61.6661 8.68624C60.1958 7.55856 59.1966 6.01691 58.5828 4.40388C59.5963 5.81706 60.8524 6.9733 62.2942 7.68703C63.7359 8.40076 65.3203 8.70052 66.9048 8.68624C70.1023 8.68624 73.2713 7.65848 76.2689 6.37377C79.3237 4.91777 82.6782 3.63306 86.0184 2.57675C89.3872 1.56325 92.8987 0.792427 96.4103 0.42129C103.419 -0.320986 110.585 -0.149691 117.451 1.47761C120.891 2.20561 124.246 3.31902 127.457 4.68938C130.683 6.08828 133.795 7.71558 136.507 9.89958Z" fill="#292F36"/>
</svg>
