<svg width="103" height="103" viewBox="0 0 103 103" fill="none" xmlns="http://www.w3.org/2000/svg">
<path d="M51.1598 101.606C79.0205 101.606 101.606 79.0205 101.606 51.1599C101.606 23.2992 79.0205 0.713623 51.1598 0.713623C23.2992 0.713623 0.713623 23.2992 0.713623 51.1599C0.713623 79.0205 23.2992 101.606 51.1598 101.606Z" fill="white"/>
<path d="M51.1599 102.32C22.9535 102.32 0 79.3664 0 51.1599C0 22.9535 22.9535 0 51.1599 0C79.3664 0 102.32 22.9535 102.32 51.1599C102.32 79.3664 79.3664 102.32 51.1599 102.32ZM51.1599 1.42745C23.7386 1.42745 1.42745 23.7386 1.42745 51.1599C1.42745 78.5813 23.7386 100.892 51.1599 100.892C78.5813 100.892 100.892 78.5813 100.892 51.1599C100.892 23.7386 78.5813 1.42745 51.1599 1.42745Z" fill="#292F36"/>
<path d="M58.3543 5.83827C58.6969 5.86682 58.9967 5.88109 59.2394 5.88109L59.2108 6.10949C58.8111 6.16658 58.4685 6.46635 58.1973 7.03733L54.8 13.832L54.7001 13.8177L54.6144 13.8035L52.459 6.22368C52.3162 5.72407 52.0735 5.45286 51.731 5.41003L51.7595 5.18164C52.0735 5.23874 52.4875 5.28156 53.0014 5.33866C53.6723 5.39576 54.1719 5.43858 54.5002 5.43858L54.4717 5.66697C54.1719 5.6527 53.9578 5.66697 53.8293 5.7098C53.7008 5.75262 53.6295 5.86682 53.6152 6.00956C53.6009 6.13803 53.6295 6.3236 53.7008 6.56627L55.2853 12.3617L57.6406 7.62259C57.8405 7.23717 57.9404 6.92313 57.9689 6.69474C57.9975 6.45207 57.9261 6.26651 57.7691 6.13803C57.6121 6.00956 57.3551 5.93819 57.0125 5.89537L57.0411 5.66697C57.455 5.73835 57.8976 5.79545 58.3543 5.83827Z" fill="#292F36"/>
<path d="M67.9466 8.85022C67.8039 8.85022 67.6897 8.90731 67.6041 9.02151C67.5184 9.13571 67.4185 9.32128 67.3186 9.59249L65.2773 15.0168C65.1774 15.288 65.1203 15.5021 65.1203 15.6449C65.1203 15.7876 65.1631 15.9018 65.263 15.9874C65.363 16.0731 65.5485 16.173 65.8055 16.2872L65.7198 16.5013C65.3915 16.3586 64.9347 16.173 64.3495 15.9446C63.7214 15.702 63.2503 15.5449 62.9363 15.445L63.0219 15.2309C63.2931 15.3165 63.493 15.3594 63.6215 15.3594C63.7499 15.3594 63.8784 15.3023 63.964 15.1881C64.0497 15.0739 64.1496 14.8883 64.2495 14.6171L66.2908 9.1928C66.3907 8.92159 66.4478 8.70747 66.4478 8.56473C66.4478 8.42198 66.405 8.30778 66.3051 8.22214C66.2051 8.13649 66.0196 8.03657 65.7626 7.92237L65.8483 7.70825C66.1481 7.83672 66.6048 8.02229 67.2329 8.26496C67.8182 8.49335 68.2892 8.65037 68.6318 8.75029L68.5462 8.96441C68.2892 8.87877 68.0894 8.83594 67.9466 8.85022Z" fill="#292F36"/>
<path d="M80.651 16.4014C80.5083 16.3729 80.3655 16.4157 80.2371 16.5014C80.1086 16.587 79.9516 16.7583 79.7803 17.001L75.6407 22.6109L75.4266 22.4538L75.9833 13.4323L72.3147 18.3999C72.1434 18.6425 72.0292 18.8424 71.9721 18.9994C71.915 19.1564 71.9436 19.2992 72.0149 19.4419C72.0863 19.5847 72.2576 19.7417 72.5003 19.9415L72.3575 20.1271C72.1434 19.9415 71.8294 19.6989 71.4154 19.3848C71.0443 19.1136 70.7445 18.8995 70.5161 18.771L70.6589 18.5854C70.8872 18.7425 71.0728 18.8281 71.2156 18.8424C71.3583 18.8709 71.5011 18.8281 71.6295 18.7425C71.758 18.6425 71.915 18.4855 72.0863 18.2429L75.4551 13.675C75.6264 13.4323 75.7406 13.2468 75.7834 13.1183C75.8262 12.9898 75.812 12.8614 75.7406 12.7472C75.6692 12.633 75.5265 12.4902 75.2981 12.3046L75.4408 12.1191C75.6264 12.2904 75.9119 12.5188 76.2973 12.79C76.5828 13.0041 76.8255 13.1754 77.0538 13.3039L76.5971 20.8694L79.5662 16.844C79.7375 16.6013 79.8659 16.4014 79.9088 16.2444C79.9516 16.0874 79.9373 15.9447 79.8659 15.8019C79.7946 15.6592 79.6233 15.4879 79.3806 15.3023L79.5233 15.1167C79.7375 15.3023 80.0515 15.545 80.4655 15.859C80.8366 16.1302 81.1364 16.3443 81.3648 16.4728L81.222 16.6584C80.9793 16.5156 80.7938 16.4157 80.651 16.4014Z" fill="#292F36"/>
<path d="M85.433 22.8393C85.8042 22.5681 86.1896 22.2683 86.6035 21.8972C86.9604 22.4396 87.5885 23.3389 88.4878 24.6094C89.3871 25.8655 90.0294 26.7505 90.4149 27.2644C89.9295 27.5499 89.5156 27.8069 89.1444 28.0638C88.8304 28.2922 88.5734 28.492 88.3879 28.649L88.2309 28.4349C88.6876 28.0352 89.0017 27.7069 89.1872 27.4643C89.3728 27.2216 89.4442 26.9647 89.4299 26.6934C89.4156 26.4222 89.2443 26.0939 88.9731 25.6942L88.602 25.1803L83.1919 29.0345C82.935 29.22 82.7494 29.3913 82.6638 29.5198C82.5781 29.6483 82.5496 29.8053 82.6067 29.9766C82.6495 30.1336 82.778 30.362 82.9635 30.6475L82.778 30.7902C82.5639 30.4476 82.2355 29.9623 81.8073 29.3771C81.3505 28.7347 81.0079 28.2779 80.7795 27.9924L80.9651 27.8497C81.1792 28.1209 81.3505 28.3065 81.4933 28.4064C81.636 28.5063 81.7788 28.5349 81.9358 28.492C82.0928 28.4492 82.3069 28.335 82.5639 28.1494L87.9739 24.2953L87.6028 23.7814C87.3173 23.3817 87.0603 23.1391 86.8177 23.0249C86.575 22.9107 86.3038 22.8964 86.0183 22.9963C85.7328 23.0963 85.3188 23.2818 84.7907 23.5816L84.6337 23.3675C84.8478 23.2533 85.1047 23.082 85.433 22.8393Z" fill="#292F36"/>
<path d="M88.1736 42.6523L87.9452 42.7236C87.8596 42.4096 87.7454 42.0099 87.5741 41.5246C87.36 40.8965 87.1887 40.4254 87.0602 40.1114L87.2886 40.04C87.3885 40.3112 87.5027 40.5111 87.5884 40.611C87.6883 40.7109 87.8168 40.7395 87.9595 40.6824C88.088 40.6395 88.245 40.5396 88.4306 40.3826L90.015 39.0836L89.1157 36.4143L87.7882 36.3572C87.36 36.3286 87.0317 36.3572 86.8033 36.4428C86.5749 36.5285 86.4321 36.6569 86.375 36.8425C86.3322 37.0281 86.3608 37.2993 86.4607 37.6276L86.2323 37.699C86.1181 37.2708 85.9753 36.8425 85.8326 36.4143C85.7184 36.086 85.6185 35.8148 85.5186 35.6006L85.7469 35.5293C85.9468 35.8718 86.375 36.0574 87.0031 36.0717L94.5972 36.4143L94.6543 36.5856L88.6019 41.6245C88.2307 41.9813 88.088 42.3097 88.1736 42.6523ZM93.1269 36.5856L89.387 36.4286L90.2292 38.9409L93.1269 36.5856Z" fill="#292F36"/>
<path d="M89.2159 53.5724C89.3586 53.5153 89.43 53.4439 89.43 53.344C89.43 53.2869 89.4157 53.2441 89.3872 53.2013C89.3586 53.1584 89.3015 53.0728 89.2159 52.9586C89.0018 52.6874 88.8447 52.4019 88.7305 52.1164C88.6163 51.8309 88.5592 51.5026 88.5592 51.1457C88.545 50.3464 88.702 49.6612 89.016 49.0759C89.3443 48.4907 89.8011 48.0481 90.4292 47.7341C91.043 47.4201 91.7853 47.263 92.656 47.2488C93.5553 47.2345 94.3404 47.3772 95.0113 47.6913C95.6822 48.0053 96.2104 48.4336 96.5815 49.0045C96.9527 49.5755 97.1525 50.2179 97.1525 50.9316C97.1525 51.2456 97.124 51.5311 97.0669 51.7738C97.0098 52.0165 96.9241 52.2306 96.8242 52.4162C96.7243 52.6017 96.5958 52.8158 96.4245 53.0442C96.3531 53.1442 96.3103 53.2298 96.3103 53.2869C96.3103 53.4297 96.553 53.5296 97.024 53.5724V53.8436C96.5244 53.8151 95.6251 53.8151 94.3404 53.8436V53.5724C94.7544 53.501 95.097 53.4154 95.3682 53.3297C95.6394 53.2441 95.8678 53.1156 96.0677 52.9586C96.3389 52.7302 96.5673 52.4304 96.7243 52.0593C96.8813 51.6882 96.9527 51.317 96.9527 50.9173C96.9384 50.4034 96.7671 49.9609 96.4245 49.5755C96.0819 49.1901 95.5966 48.9046 94.9828 48.6905C94.3547 48.4907 93.641 48.3907 92.813 48.405C91.8709 48.4193 91.1144 48.5335 90.5149 48.7476C89.9153 48.9617 89.4871 49.2758 89.2016 49.6897C88.9161 50.1037 88.7876 50.6318 88.8019 51.2742C88.8162 51.7453 88.9447 52.1449 89.1873 52.4875C89.2872 52.6303 89.3729 52.7159 89.4728 52.7587C89.5585 52.8016 89.6869 52.8158 89.8439 52.8158L90.9716 52.8016C91.3 52.8016 91.5283 52.7587 91.6854 52.7016C91.8281 52.6445 91.9423 52.5304 91.9851 52.3591C92.0422 52.202 92.0708 51.9451 92.0708 51.6025H92.2992C92.2849 51.9879 92.2706 52.5304 92.2849 53.2584C92.2992 53.8008 92.3134 54.2147 92.342 54.4717H92.1136C92.0993 54.2861 92.0565 54.1577 92.0137 54.0863C91.9709 54.0149 91.8709 53.9578 91.7425 53.9293C91.614 53.9007 91.3999 53.8864 91.1001 53.9007L88.7876 53.9435V53.7151C88.9161 53.658 89.0731 53.6295 89.2159 53.5724Z" fill="#292F36"/>
<path d="M87.517 65.72C87.1031 65.5915 86.6177 65.463 86.061 65.3488C86.2466 64.8492 86.5178 64.007 86.9032 62.8079C87.36 61.3805 87.6883 60.2956 87.8882 59.5676L88.1166 59.639C88.0452 59.9102 88.0166 60.1101 88.0166 60.2528C88.0309 60.3955 88.088 60.4955 88.2022 60.5811C88.3164 60.6668 88.5163 60.7524 88.7875 60.8381L94.3117 62.5796C94.5972 62.6652 94.7971 62.708 94.9398 62.708C95.0825 62.708 95.1967 62.6509 95.2824 62.5367C95.368 62.4225 95.4537 62.237 95.5536 61.98L95.782 62.0514C95.525 62.7794 95.1825 63.85 94.7257 65.2774C94.3831 66.3623 94.1404 67.1474 94.0262 67.6185C93.5552 67.4186 93.1269 67.2473 92.7272 67.1331C92.4417 67.0475 92.1991 66.9761 92.0278 66.9476L92.1134 66.6906C92.613 66.7905 92.9985 66.8334 93.2554 66.8334C93.5123 66.8334 93.7265 66.7477 93.8978 66.5764C94.069 66.4194 94.2118 66.1339 94.3403 65.7485L94.6258 64.8207C94.7114 64.5494 94.7542 64.3496 94.74 64.2211C94.7257 64.0927 94.6829 63.9785 94.5687 63.8928C94.4545 63.8072 94.2689 63.7215 93.9834 63.6359L91.3569 62.8079L91.1285 63.5502C91.0143 63.9214 91.0428 64.2069 91.2284 64.4067C91.414 64.6065 91.6138 64.7493 91.8422 64.8492C92.0706 64.9491 92.2134 65.0205 92.2705 65.049L92.1848 65.306C91.8279 65.1632 91.4854 65.0348 91.1428 64.9349L90.6146 64.7778C90.2435 64.6636 89.701 64.5066 89.0159 64.3496L89.1015 64.0927C89.1586 64.1069 89.3442 64.1355 89.6582 64.2069C89.9723 64.2639 90.2435 64.2354 90.4576 64.1212C90.6717 64.007 90.8145 63.7929 90.9144 63.4931L91.1428 62.7508L88.4592 61.9087C88.1737 61.823 87.9738 61.7802 87.8311 61.7802C87.6883 61.7802 87.5741 61.8373 87.5028 61.9515C87.4171 62.0657 87.3315 62.2512 87.2458 62.5225L86.9889 63.3361C86.8461 63.8072 86.789 64.1783 86.8461 64.4495C86.889 64.735 87.0317 64.9634 87.2744 65.1632C87.517 65.3488 87.8882 65.5629 88.3878 65.7913L88.3021 66.0483C88.1308 65.9198 87.8596 65.8342 87.517 65.72Z" fill="#292F36"/>
<path d="M83.4489 83.2348C83.506 83.1064 83.4918 82.9779 83.4347 82.8494C83.3776 82.7209 83.2348 82.5639 83.0207 82.3498L78.824 78.3387C78.6099 78.1388 78.4386 78.0104 78.3101 77.9533C78.1816 77.8962 78.0532 77.8962 77.9247 77.9533C77.7962 78.0104 77.6392 78.1388 77.4394 78.3387L77.2681 78.1816C77.5393 77.939 77.8819 77.5821 78.3244 77.1396C78.7812 76.6543 79.1238 76.2831 79.3379 76.0405L79.5092 76.1975C79.3236 76.4116 79.2094 76.5829 79.1523 76.6971C79.0952 76.8256 79.1095 76.954 79.1666 77.0825C79.2237 77.211 79.3664 77.368 79.5805 77.5821L83.7773 81.5933C83.9914 81.7931 84.1627 81.9216 84.2911 81.9787C84.4196 82.0358 84.5481 82.0358 84.6765 81.9787C84.805 81.9216 84.962 81.7931 85.1619 81.5933L85.3332 81.7503C85.0905 81.9644 84.7336 82.3213 84.2769 82.8066C83.8344 83.2634 83.506 83.6345 83.2776 83.9057L83.1064 83.7487C83.2776 83.5346 83.3918 83.3633 83.4489 83.2348Z" fill="#292F36"/>
<path d="M71.5582 91.9422C71.6438 91.8138 71.6581 91.6853 71.6295 91.5283C71.601 91.3713 71.5011 91.1714 71.344 90.9002L67.804 84.8906L68.0323 84.7479L76.1117 88.7876L72.9856 83.4774C72.8286 83.2205 72.7001 83.0349 72.5717 82.935C72.4432 82.8351 72.3004 82.7923 72.1434 82.8065C71.9864 82.8208 71.7723 82.9065 71.5011 83.0492L71.3726 82.8494C71.6295 82.7352 71.9721 82.5353 72.4146 82.2784C72.8143 82.0357 73.1141 81.8501 73.3282 81.6931L73.4424 81.893C73.214 82.0357 73.057 82.1784 72.9856 82.3069C72.9 82.4354 72.8857 82.5639 72.9142 82.7209C72.9428 82.8779 73.0427 83.0777 73.1997 83.349L76.0832 88.2451C76.2259 88.5021 76.3544 88.6734 76.4686 88.759C76.5828 88.8447 76.697 88.8875 76.8397 88.8589C76.9682 88.8304 77.168 88.759 77.4107 88.6305L77.5249 88.8304C77.2965 88.9446 76.9825 89.1159 76.5685 89.3585C76.2688 89.5298 76.0118 89.7011 75.7977 89.8439L69.0173 86.4608L71.5582 90.7717C71.7152 91.0287 71.8436 91.2142 71.9721 91.3142C72.0863 91.4141 72.2291 91.4569 72.4004 91.4426C72.5717 91.4283 72.7858 91.3427 73.057 91.2L73.1712 91.3998C72.9142 91.514 72.5716 91.7138 72.1291 91.9708C71.7295 92.2134 71.4297 92.399 71.2156 92.556L71.1014 92.3562C71.3155 92.1992 71.4725 92.0564 71.5582 91.9422Z" fill="#292F36"/>
<path d="M63.7072 93.8123C63.8071 94.2549 63.9356 94.7402 64.1069 95.2541C63.4645 95.3683 62.3939 95.5967 60.8808 95.9107C59.3677 96.239 58.3114 96.4817 57.6833 96.6387C57.612 96.082 57.5406 95.5967 57.4407 95.1542C57.355 94.7687 57.2836 94.4547 57.198 94.2263L57.4549 94.1692C57.6405 94.7545 57.8118 95.1684 57.9688 95.4396C58.1258 95.7109 58.3257 95.8822 58.5826 95.9678C58.8396 96.0534 59.2107 96.0392 59.6818 95.9392L60.2956 95.8108L58.8967 89.3159C58.8253 89.0018 58.7539 88.7734 58.654 88.645C58.5541 88.5165 58.4399 88.4308 58.2686 88.4166C58.0973 88.388 57.8404 88.4166 57.4978 88.4737L57.4549 88.2453C57.8546 88.1882 58.4256 88.074 59.1393 87.917C59.8959 87.7457 60.4669 87.6172 60.8237 87.5173L60.8666 87.7457C60.524 87.8313 60.2956 87.917 60.1528 88.0026C60.0101 88.0883 59.9244 88.2167 59.8959 88.3737C59.8673 88.5308 59.8816 88.7734 59.953 89.0875L61.3519 95.5824L61.9657 95.4539C62.4368 95.354 62.7793 95.2112 62.9792 95.0257C63.179 94.8401 63.2932 94.5974 63.3218 94.2977C63.3503 93.9979 63.336 93.5411 63.2647 92.9416L63.5216 92.8845C63.5644 93.1129 63.6215 93.4269 63.7072 93.8123Z" fill="#292F36"/>
<path d="M44.7648 89.8011C44.8076 89.3586 44.8219 88.859 44.8219 88.3022C45.35 88.3736 46.2351 88.4593 47.4912 88.5735C48.9758 88.7019 50.1035 88.8019 50.8743 88.8447L50.86 89.0731C50.5745 89.0588 50.3747 89.0731 50.2462 89.1159C50.1177 89.1587 50.0178 89.2301 49.9607 89.3586C49.9036 89.487 49.8608 89.7012 49.8323 89.9866L49.3184 95.7678C49.2898 96.0533 49.3041 96.2674 49.3326 96.4102C49.3612 96.5529 49.4468 96.6528 49.5753 96.7099C49.7038 96.767 49.9036 96.8241 50.1748 96.8527L50.1606 97.0811C49.404 96.9954 48.2763 96.8812 46.7918 96.7528C45.6498 96.6528 44.8362 96.5958 44.3508 96.5672C44.4508 96.0676 44.5221 95.6108 44.5507 95.1968C44.5792 94.8971 44.5935 94.6544 44.5792 94.4688L44.8504 94.4974C44.8647 95.0113 44.8933 95.3824 44.9646 95.6394C45.0217 95.8963 45.1502 96.0819 45.35 96.2103C45.5356 96.3388 45.8497 96.4245 46.2493 96.453L47.22 96.5386C47.5055 96.5672 47.7053 96.5529 47.8338 96.5244C47.9623 96.4958 48.0622 96.4102 48.1193 96.2817C48.1764 96.1532 48.2192 95.9391 48.2478 95.6536L48.4904 92.9129L47.7196 92.8415C47.3342 92.813 47.063 92.8986 46.906 93.127C46.7632 93.3554 46.649 93.5838 46.6062 93.8265C46.5491 94.0692 46.5206 94.2262 46.5063 94.2975L46.2351 94.269C46.2922 93.8836 46.335 93.5267 46.3778 93.1699L46.4206 92.6132C46.4492 92.2135 46.4777 91.671 46.5063 90.9573L46.7775 90.9859C46.7775 91.043 46.7918 91.2285 46.7918 91.5568C46.806 91.8852 46.8774 92.1421 47.0487 92.3134C47.2057 92.499 47.4484 92.5989 47.7624 92.6274L48.5333 92.6988L48.7759 89.901C48.8045 89.6155 48.7902 89.4014 48.7617 89.2586C48.7331 89.1302 48.6475 89.0302 48.519 88.9732C48.3905 88.9161 48.1907 88.8732 47.9195 88.8447L47.063 88.7733C46.5777 88.7305 46.2065 88.759 45.9353 88.8732C45.6784 88.9731 45.4785 89.173 45.3358 89.4442C45.193 89.7154 45.0788 90.1294 44.9646 90.6718L44.6934 90.6433C44.6934 90.4292 44.722 90.1437 44.7648 89.8011Z" fill="#292F36"/>
<path d="M33.5308 84.5053C33.7449 84.4625 33.9875 84.5053 34.2445 84.6195C34.5443 84.748 34.7441 84.9336 34.8583 85.1762C34.9725 85.4332 34.9868 85.79 34.9154 86.2611L34.7013 87.4316C34.6299 87.8456 34.5871 88.1596 34.5728 88.4023C34.5585 88.6307 34.6156 88.8448 34.7155 89.0304C34.8155 89.2159 35.001 89.3587 35.2723 89.4729L36.3 89.9011L37.3421 87.4173C37.4563 87.1461 37.5134 86.9463 37.5276 86.8035C37.5419 86.6608 37.4848 86.5466 37.3849 86.4467C37.285 86.3468 37.1137 86.2468 36.8567 86.1326L36.9424 85.9185C37.2707 86.0755 37.7132 86.2754 38.2985 86.5181C38.9123 86.775 39.3833 86.9606 39.6974 87.0605L39.6117 87.2746C39.3405 87.1747 39.1407 87.1319 39.0122 87.1176C38.8694 87.1176 38.7552 87.1604 38.6696 87.2746C38.5697 87.3745 38.4698 87.5601 38.3556 87.8313L36.1145 93.1843C36.0003 93.4555 35.9432 93.6553 35.9289 93.7981C35.9146 93.9408 35.9717 94.055 36.0716 94.1549C36.1716 94.2548 36.3428 94.3548 36.5998 94.4832L36.5141 94.6974C36.2144 94.5546 35.7861 94.3548 35.2152 94.1121C34.9297 93.9979 34.6299 93.8694 34.2873 93.7267C33.9447 93.584 33.7163 93.4983 33.5879 93.4412C33.0312 93.1985 32.5886 92.9273 32.2603 92.599C31.932 92.2707 31.7464 91.9281 31.6608 91.557C31.5752 91.1858 31.618 90.829 31.775 90.4721C31.8892 90.1866 32.0748 89.9297 32.3317 89.7013C32.5886 89.4729 32.917 89.3016 33.3166 89.2159C33.7163 89.1303 34.2017 89.1446 34.7298 89.273L34.6014 89.2017C34.3016 89.0161 34.0732 88.8305 33.9305 88.6307C33.7877 88.4451 33.6878 88.231 33.6592 88.0026C33.6164 87.7742 33.6307 87.4887 33.6878 87.1461L33.8876 85.9328C33.9304 85.6901 33.959 85.5046 33.959 85.3618C33.959 85.2191 33.9447 85.1049 33.9019 85.0192C33.8591 84.9336 33.7877 84.8622 33.6878 84.8337C33.5736 84.7766 33.4594 84.7766 33.3595 84.8051C33.2595 84.8337 33.1168 84.905 32.9312 85.0049L32.817 84.8194C33.074 84.6624 33.3166 84.5482 33.5308 84.5053ZM34.2445 89.5871C33.9019 89.6299 33.6307 89.7584 33.4166 89.9725C33.2024 90.1866 33.0169 90.4721 32.8599 90.8432C32.6172 91.4285 32.5601 91.9424 32.7171 92.3563C32.8741 92.7703 33.2595 93.1129 33.9019 93.3841C34.1303 93.484 34.3016 93.5269 34.4443 93.5126C34.5728 93.5126 34.687 93.4555 34.7869 93.3413C34.8868 93.2271 34.9868 93.0415 35.0867 92.7846L36.2001 90.1295L35.4721 89.8297C35.001 89.6299 34.5871 89.5442 34.2445 89.5871Z" fill="#292F36"/>
<path d="M22.3966 86.4467C22.5251 86.4895 22.6535 86.461 22.7677 86.3896C22.8819 86.3182 23.039 86.1612 23.2245 85.9328L26.8074 81.365C26.993 81.1366 27.1072 80.951 27.15 80.8226C27.1928 80.6941 27.1786 80.5656 27.1072 80.4514C27.0358 80.3372 26.8931 80.1802 26.679 79.9946L26.8217 79.8091C27.0929 80.0517 27.4641 80.3658 27.9637 80.7512C28.4918 81.1651 28.8915 81.4649 29.1627 81.6505L29.02 81.836C28.7916 81.6648 28.606 81.5648 28.4776 81.5363C28.3491 81.4935 28.2206 81.5077 28.1064 81.5934C27.9922 81.6647 27.8352 81.8218 27.6496 82.0502L24.0667 86.618C23.8812 86.8464 23.767 87.032 23.7241 87.1604C23.6813 87.2889 23.6956 87.4174 23.767 87.5316C23.8383 87.6458 23.9811 87.8028 24.1952 87.9884L24.0524 88.1739C23.8098 87.9598 23.4244 87.6458 22.8962 87.2175C22.3966 86.8321 21.9969 86.5324 21.7114 86.3325L21.8542 86.147C22.0968 86.304 22.2681 86.4039 22.3966 86.4467Z" fill="#292F36"/>
<path d="M13.1754 76.2832C13.1183 75.6409 13.261 74.9985 13.5893 74.3847C13.9319 73.7566 14.4458 73.1999 15.1595 72.6717C15.859 72.1721 16.5584 71.8438 17.2864 71.7154C18.0144 71.5869 18.6853 71.6297 19.3134 71.8724C19.9415 72.115 20.4697 72.529 20.8836 73.1143C21.3261 73.7138 21.5688 74.3419 21.6259 74.9842C21.683 75.6266 21.5402 76.2689 21.2119 76.8827C20.8693 77.5108 20.3555 78.0675 19.6417 78.5957C18.9423 79.0953 18.2428 79.4236 17.5148 79.5521C16.8011 79.6805 16.1159 79.6377 15.4878 79.3951C14.8598 79.1524 14.3316 78.7384 13.9176 78.1674C13.4751 77.5536 13.2325 76.9256 13.1754 76.2832ZM15.3165 78.8241C15.8162 78.924 16.3871 78.8812 17.0152 78.6813C17.6433 78.4815 18.2714 78.1532 18.928 77.6678C19.5846 77.1968 20.0985 76.6829 20.4554 76.1405C20.8265 75.598 21.0264 75.0556 21.0549 74.5417C21.0977 74.0278 20.9693 73.571 20.698 73.1856C20.3983 72.7859 20.0129 72.529 19.499 72.4291C18.9994 72.3292 18.4284 72.372 17.8003 72.5718C17.1722 72.7717 16.5442 73.1 15.8875 73.571C15.2309 74.0421 14.717 74.556 14.3602 75.1127C13.989 75.6551 13.7892 76.1833 13.7463 76.7114C13.7035 77.2253 13.832 77.6821 14.1032 78.0675C14.403 78.4672 14.8027 78.7242 15.3165 78.8241Z" fill="#292F36"/>
<path d="M14.2745 59.0965C14.4458 59.225 14.5742 59.4391 14.6599 59.7246C14.7598 60.0244 14.7455 60.3099 14.6313 60.5525C14.5171 60.8095 14.2459 61.0521 13.832 61.2948L12.7899 61.88C12.4331 62.0942 12.1618 62.2655 11.9763 62.4082C11.7907 62.551 11.6622 62.7223 11.5909 62.9221C11.5195 63.1219 11.5195 63.3503 11.6051 63.6358L11.9335 64.7064L14.5029 63.907C14.7884 63.8214 14.9739 63.7357 15.0881 63.6501C15.2023 63.5644 15.2594 63.4503 15.2737 63.3218C15.288 63.1933 15.2451 62.9792 15.1738 62.708L15.4022 62.6366C15.4878 62.9792 15.6163 63.4645 15.8161 64.0641C16.016 64.7064 16.173 65.1775 16.2872 65.4772L16.0588 65.5486C15.9589 65.2774 15.8732 65.0918 15.7876 64.9919C15.7019 64.892 15.5877 64.8206 15.445 64.8206C15.3022 64.8206 15.0881 64.8492 14.8169 64.9491L9.27839 66.662C8.9929 66.7477 8.80733 66.8333 8.69313 66.919C8.57894 67.0046 8.52184 67.1188 8.50756 67.2473C8.49329 67.39 8.53611 67.5899 8.60748 67.8611L8.37909 67.9325C8.30772 67.6184 8.17925 67.1616 7.99368 66.5621C7.90803 66.2766 7.79384 65.9483 7.67964 65.6057C7.56544 65.2631 7.4798 65.0204 7.43697 64.892C7.2514 64.3067 7.19431 63.7928 7.23713 63.3361C7.27995 62.8793 7.4227 62.5081 7.65109 62.2084C7.87948 61.9086 8.17925 61.7088 8.55039 61.5946C8.83588 61.5089 9.14992 61.4804 9.49251 61.5232C9.83509 61.566 10.1634 61.7088 10.506 61.9657C10.8486 62.2226 11.1341 62.5938 11.3767 63.0934L11.3625 62.9506C11.3196 62.5938 11.3054 62.3083 11.3625 62.0656C11.4196 61.823 11.5195 61.6231 11.6622 61.4518C11.8193 61.2805 12.0476 61.095 12.3474 60.9237L13.4037 60.2956C13.6178 60.1814 13.7891 60.0672 13.8891 59.9815C13.989 59.8959 14.0746 59.8102 14.1175 59.7246C14.1603 59.6389 14.1603 59.539 14.1317 59.4391C14.0889 59.3106 14.0318 59.225 13.9462 59.1679C13.8605 59.1108 13.7178 59.0394 13.5179 58.968L13.5893 58.7539C13.8748 58.8539 14.1175 58.968 14.2745 59.0965ZM10.8629 62.9221C10.6202 62.6937 10.3347 62.5652 10.0349 62.5367C9.73517 62.5081 9.39258 62.551 9.00717 62.6794C8.39337 62.865 7.9794 63.1648 7.75101 63.5502C7.52262 63.9356 7.52262 64.4637 7.72246 65.1061C7.79384 65.3345 7.87948 65.5058 7.96513 65.6057C8.05078 65.7056 8.17925 65.7627 8.32199 65.7627C8.46474 65.7627 8.67886 65.7199 8.9358 65.6485L11.6765 64.7921L11.4481 64.0355C11.3054 63.5216 11.1055 63.1505 10.8629 62.9221Z" fill="#292F36"/>
<path d="M13.1753 45.5502C13.7177 45.3075 14.046 44.8507 14.1888 44.1656C14.2316 43.9086 14.2316 43.6517 14.1602 43.409C14.0889 43.1663 13.9604 42.9522 13.7606 42.7667C13.5607 42.5811 13.2895 42.4526 12.9326 42.3955C12.6329 42.3384 12.3617 42.367 12.1047 42.4669C11.8478 42.5668 11.5908 42.7238 11.3482 42.938C11.1055 43.1521 10.82 43.4376 10.506 43.7944C10.1491 44.1941 9.83506 44.5224 9.56384 44.7508C9.29263 44.9935 8.99286 45.1648 8.66455 45.2933C8.33624 45.4217 7.9651 45.436 7.55114 45.3646C7.1229 45.279 6.76604 45.122 6.50909 44.865C6.25215 44.6081 6.06658 44.3083 5.98094 43.9514C5.89529 43.5946 5.89529 43.2234 5.96666 42.8238C6.00949 42.5811 6.06658 42.3955 6.13796 42.2242C6.20933 42.0529 6.2807 41.9245 6.36635 41.8245C6.452 41.7246 6.53764 41.6104 6.65184 41.4962C6.79458 41.3392 6.86596 41.225 6.89451 41.1394C6.90878 41.068 6.88023 41.0109 6.80886 40.9538C6.73749 40.8967 6.60902 40.8539 6.43772 40.7968L6.48055 40.5398C6.92306 40.654 7.69388 40.8253 8.82157 41.0394L8.77875 41.2964C8.37906 41.2536 8.00792 41.2678 7.63678 41.3535C7.27992 41.4249 6.96588 41.5819 6.70894 41.8245C6.452 42.0529 6.2807 42.3812 6.20933 42.7809C6.15223 43.0522 6.16651 43.2948 6.23788 43.5375C6.30925 43.7802 6.43772 43.9657 6.60902 44.1227C6.79459 44.2798 7.0087 44.3797 7.26564 44.4368C7.67961 44.5082 8.03647 44.4511 8.33624 44.2512C8.636 44.0514 8.92149 43.7944 9.19271 43.4947C9.46392 43.1949 9.63522 42.9951 9.73514 42.8951C10.1348 42.4669 10.4631 42.1386 10.7344 41.8959C11.0056 41.6532 11.3053 41.482 11.6337 41.3678C11.962 41.2536 12.3188 41.2393 12.7042 41.3107C13.1753 41.3963 13.5607 41.5819 13.8462 41.8531C14.1317 42.1386 14.3173 42.4669 14.4172 42.8666C14.5171 43.2663 14.5171 43.6945 14.4315 44.1513C14.3601 44.5224 14.2744 44.8079 14.146 45.0363C14.0318 45.2647 13.8748 45.4645 13.7035 45.6501C13.5607 45.8071 13.4893 45.9213 13.4608 46.007C13.4465 46.0784 13.4751 46.1355 13.5464 46.1926C13.6178 46.2496 13.7463 46.3067 13.9176 46.3496L13.8748 46.6065C13.4608 46.4923 12.5472 46.3067 11.134 46.0498L11.1769 45.7929C11.9762 45.8642 12.6329 45.7929 13.1753 45.5502Z" fill="#292F36"/>
<path d="M10.3489 33.5165C9.94918 33.3024 9.4924 33.1026 8.97852 32.9027C9.29256 32.346 9.82071 31.3754 10.5344 29.9907C11.2482 28.6204 11.7478 27.6497 12.019 27.0645C12.4901 27.3642 12.9183 27.6212 13.3037 27.821C13.6463 28.0066 13.9461 28.135 14.1744 28.235L14.046 28.4776C13.475 28.2492 13.0468 28.1065 12.747 28.0637C12.4472 28.0066 12.176 28.0637 11.9476 28.2064C11.7192 28.3492 11.4908 28.6347 11.2767 29.0629L10.9912 29.6339L16.8866 32.7029C17.1721 32.8599 17.4005 32.9313 17.5575 32.9456C17.7145 32.9598 17.8573 32.917 17.9857 32.8028C18.1142 32.6886 18.257 32.4745 18.4283 32.1747L18.6424 32.2889C18.4283 32.6458 18.157 33.1454 17.8145 33.802C17.4576 34.4872 17.2006 35.0154 17.0436 35.3437L16.8295 35.2295C16.9723 34.9154 17.0722 34.6728 17.0865 34.5158C17.115 34.3445 17.0722 34.2017 16.958 34.0733C16.8438 33.9448 16.6582 33.8163 16.3727 33.6593L10.4773 30.576L10.1776 31.1327C9.94918 31.5609 9.84925 31.9035 9.86353 32.1747C9.8778 32.446 9.99201 32.6886 10.2061 32.9027C10.4202 33.1169 10.7771 33.4023 11.291 33.7307L11.1625 33.9733C10.977 33.8591 10.6915 33.7021 10.3489 33.5165Z" fill="#292F36"/>
<path d="M20.4268 17.1153C20.6694 16.8726 20.8693 16.6442 21.012 16.4729L21.1833 16.6442C21.0977 16.7727 21.0549 16.9582 21.0691 17.1724C21.0834 17.3865 21.1405 17.6862 21.2547 18.0431L22.5537 21.9115L24.0668 23.4103C24.2809 23.6102 24.4379 23.7529 24.5664 23.81C24.6949 23.8671 24.8233 23.8671 24.9518 23.81C25.0803 23.7529 25.2373 23.6244 25.4514 23.4389L25.6227 23.6102C25.3515 23.8528 24.9946 24.1954 24.5521 24.6379C24.0811 25.109 23.7385 25.4801 23.5244 25.7228L23.3531 25.5515C23.5386 25.3374 23.6671 25.1804 23.7242 25.0519C23.7813 24.9234 23.7813 24.795 23.7099 24.6665C23.6528 24.538 23.5101 24.3667 23.3102 24.1669L22.0541 22.925L17.2864 21.5261C17.0009 21.4404 16.7868 21.4119 16.644 21.4262C16.5013 21.4404 16.4014 21.4833 16.33 21.5546L16.1587 21.3833C16.3871 21.1835 16.644 20.9551 16.901 20.6839C17.4291 20.1415 17.8145 19.756 18.0287 19.4991L18.2 19.6704C17.8145 20.0558 17.7289 20.3556 17.943 20.5697C18.0287 20.6553 18.1429 20.7124 18.3141 20.7695L22.3253 22.0114L21.269 18.8567C21.112 18.4 20.9549 18.0859 20.7836 17.9289C20.6266 17.7719 20.4553 17.7291 20.2698 17.7862C20.0842 17.8433 19.8701 17.986 19.6131 18.2287L19.4418 18.0574C19.7844 17.7433 20.0985 17.4293 20.4268 17.1153Z" fill="#292F36"/>
<path d="M29.0628 11.3625C28.9771 11.4624 28.9343 11.5909 28.9628 11.7336C28.9914 11.8764 29.0628 12.0762 29.2055 12.3332L31.9605 17.4435C32.1032 17.7004 32.2174 17.8717 32.3316 17.9716C32.4316 18.0715 32.56 18.1001 32.6885 18.0858C32.817 18.0715 33.0168 17.9859 33.2595 17.8574L34.016 17.4435C34.4443 17.2151 34.744 16.9724 34.9011 16.7297C35.0581 16.4871 35.1152 16.2158 35.0723 15.8875C35.0295 15.5592 34.9011 15.1453 34.6727 14.6028L34.9153 14.4744C35.0152 14.7027 35.158 14.9882 35.3436 15.3308C35.5577 15.7162 35.8146 16.1445 36.1287 16.6155C35.6576 16.8439 34.8582 17.2579 33.7591 17.8574C32.4458 18.5711 31.4466 19.1136 30.79 19.499L30.6758 19.2991C30.9185 19.1564 31.0898 19.0279 31.1754 18.928C31.261 18.8281 31.3039 18.6996 31.2753 18.5569C31.2468 18.4141 31.1754 18.2143 31.0327 17.9573L28.2491 12.8471C28.1064 12.5901 27.9922 12.4188 27.878 12.3189C27.7781 12.219 27.6496 12.1904 27.5211 12.2047C27.3784 12.219 27.1928 12.2904 26.9359 12.4188L26.8359 12.2047C27.1357 12.0762 27.5782 11.8478 28.1635 11.5195C28.7202 11.2198 29.1484 10.9771 29.4482 10.7915L29.5624 10.9914C29.3197 11.1341 29.1627 11.2626 29.0628 11.3625Z" fill="#292F36"/>
<path d="M46.4491 12.2761C46.5348 12.7044 46.6633 13.1897 46.8203 13.7321C46.2921 13.8178 45.4214 13.9748 44.1938 14.2175C42.7235 14.503 41.6243 14.7314 40.8678 14.9027L40.825 14.6743C41.0962 14.6029 41.296 14.5458 41.4102 14.4601C41.5244 14.3888 41.5958 14.2746 41.6101 14.1461C41.6243 14.0034 41.6101 13.7892 41.553 13.5038L40.4396 7.80817C40.3825 7.52268 40.3254 7.32284 40.2397 7.19437C40.1541 7.0659 40.0684 6.99452 39.9257 6.98025C39.7972 6.9517 39.5831 6.96597 39.3119 7.0088L39.269 6.7804C40.0256 6.65193 41.139 6.45209 42.595 6.1666C43.7227 5.93821 44.5221 5.78119 44.9789 5.66699C45.0217 6.18087 45.0931 6.63766 45.1644 7.03735C45.2215 7.33711 45.2786 7.5655 45.3357 7.7368L45.0788 7.7939C44.9218 7.30856 44.779 6.9517 44.6505 6.72331C44.5221 6.49491 44.3365 6.35217 44.1224 6.2808C43.894 6.20942 43.5942 6.20942 43.1803 6.29507L42.2239 6.48064C41.9527 6.53774 41.7528 6.59484 41.6386 6.66621C41.5244 6.73758 41.453 6.8375 41.4245 6.98025C41.4102 7.12299 41.4245 7.33711 41.4816 7.6226L42.0098 10.3348L42.7663 10.1778C43.1517 10.1064 43.3801 9.93508 43.4658 9.67814C43.5514 9.42119 43.58 9.17853 43.5657 8.93586C43.5514 8.69319 43.5371 8.53617 43.5371 8.4648L43.7941 8.4077C43.8369 8.79311 43.894 9.14998 43.9654 9.49257L44.0796 10.035C44.1509 10.4205 44.2794 10.9629 44.465 11.6481L44.208 11.7052C44.1938 11.6481 44.1367 11.4768 44.0367 11.1627C43.9368 10.8487 43.7941 10.6346 43.58 10.5061C43.3658 10.3776 43.1232 10.3491 42.8091 10.4062L42.0526 10.5489L42.595 13.3039C42.6521 13.5894 42.7092 13.7892 42.7806 13.9177C42.8519 14.0319 42.9519 14.1033 43.0946 14.1318C43.2231 14.1461 43.4372 14.1318 43.7084 14.0747L44.5506 13.9034C45.0217 13.8035 45.3785 13.675 45.6069 13.5038C45.8353 13.3325 45.9638 13.0898 46.0209 12.79C46.078 12.4903 46.078 12.062 46.0352 11.5053L46.2921 11.4482C46.3349 11.6623 46.3778 11.9336 46.4491 12.2761Z" fill="#292F36"/>
<path d="M36.8283 66.7904C36.1717 65.9054 35.6007 64.9347 35.1011 63.8641C34.6015 62.7935 34.2018 61.7087 33.9021 60.5953C33.2454 55.6991 33.2312 50.9457 33.845 46.335C34.4588 41.7243 35.458 37.185 36.8283 32.7028C37.0567 32.2032 37.5563 31.9605 38.3272 31.9605C39.098 31.9605 39.8545 32.1318 40.6254 32.4744C41.3962 32.817 42.0243 33.2738 42.5239 33.8448C43.0235 34.4158 43.1377 35.0153 42.8665 35.6291C42.4382 36.5427 42.0243 37.7846 41.6103 39.3262C41.1964 40.8821 40.7824 42.5951 40.4113 44.465C40.0258 46.335 39.6975 48.3049 39.412 50.3462C39.1265 52.3874 38.9124 54.3573 38.784 56.2274C38.6555 58.0973 38.6269 59.7959 38.6983 61.309C38.7697 62.8221 38.9981 64.0212 39.3835 64.8919C41.1821 62.4795 42.8237 59.9815 44.3225 57.3978C45.8213 54.8141 47.2202 52.2018 48.5335 49.5325C49.8467 46.8774 51.1029 44.1938 52.2877 41.4674C53.4725 38.7552 54.643 36.0716 55.7849 33.4308C56.3559 32.089 56.9269 30.6758 57.4836 29.1913C58.0403 27.6925 58.7683 26.422 59.6962 25.3514C60.0816 25.0088 60.3813 24.8947 60.5812 25.0088C60.7953 25.123 60.938 25.3372 61.0094 25.6655C61.0808 25.9938 61.1236 26.3364 61.1236 26.6932C61.1236 27.0501 61.1236 27.3356 61.1236 27.5212C60.8524 29.2769 60.624 31.0184 60.4384 32.7456C60.2529 34.4729 59.8389 36.1287 59.2394 37.7417C58.2402 40.2683 57.2267 42.7664 56.1703 45.2644C55.114 47.7482 53.9863 50.2034 52.7873 52.6158C51.5882 55.0282 50.275 57.3692 48.8903 59.6389C47.4914 61.9228 45.9783 64.0925 44.3225 66.1481C43.0235 67.7896 41.7245 68.6604 40.4541 68.7603C39.1265 68.8745 37.9418 68.2036 36.8283 66.7904Z" fill="#292F36" stroke="white" stroke-miterlimit="10"/>
<path d="M60.467 60.3098C59.6962 59.2392 58.9397 58.1543 58.1974 57.0409C57.4551 55.9275 57.084 54.7142 57.084 53.3724C57.084 51.8878 57.5122 50.4746 58.3687 49.1471C59.2252 47.8339 60.2101 46.7633 61.3235 45.9639C61.7803 45.6641 62.2514 45.4072 62.7224 45.2216C63.1935 45.036 63.7074 45.0503 64.2498 45.2787C64.4782 45.3929 64.7209 45.4786 64.9635 45.5357C65.2062 45.5928 65.4346 45.6641 65.6202 45.7355C65.8057 45.8069 66.0198 45.9211 66.2482 46.0781C66.4766 46.2351 66.5908 46.435 66.5908 46.7062C66.5908 47.7768 66.6194 48.6475 66.6765 49.3184C66.7336 49.9893 66.8192 50.5603 66.9334 51.0456C67.0476 51.531 67.1618 51.9449 67.276 52.3018C67.3902 52.6729 67.5044 53.0583 67.6186 53.4723C67.69 53.8577 67.6757 54.186 67.5615 54.443C67.4473 54.7142 67.1618 54.7427 66.705 54.5572C65.8628 54.2574 65.2347 53.6436 64.835 52.7157C64.4354 51.7879 64.1356 50.96 63.95 50.1892C63.9072 50.0321 63.8216 49.7752 63.6645 49.3898C63.5075 49.0044 63.4219 48.7332 63.3791 48.5904C63.0793 48.519 62.7081 48.619 62.2942 48.9044C61.8802 49.1899 61.4948 49.5896 61.1808 50.075C60.8525 50.5746 60.6383 51.1455 60.5527 51.8022C60.4528 52.4588 60.5812 53.1012 60.9238 53.7578C61.0808 53.9862 61.295 54.2717 61.5805 54.5857C61.8659 54.914 62.1514 55.2423 62.4369 55.5849C62.7224 55.9275 63.0079 56.2701 63.2934 56.5841C63.5789 56.8982 63.8216 57.1694 64.0071 57.355C64.2355 57.5834 64.3925 57.7118 64.4639 57.7261C64.5353 57.7404 64.7351 57.6976 65.0349 57.5834C65.4203 57.3978 66.0056 57.1409 66.7907 56.8411C67.5758 56.5413 68.4037 56.2273 69.2602 55.9275C70.1166 55.6278 70.9446 55.3708 71.7297 55.1567C72.5148 54.9426 73.1143 54.8426 73.5425 54.8426C73.8137 54.8426 73.9993 54.9426 74.1135 55.1281C74.2277 55.2423 74.2134 55.3994 74.0564 55.5849C73.8994 55.7705 73.6995 55.9703 73.4569 56.1559C73.2142 56.3415 72.943 56.5128 72.686 56.6698C72.4148 56.8268 72.2435 56.9125 72.1722 56.9553C71.5155 57.3407 70.7019 57.7689 69.7027 58.2543C68.7035 58.7253 67.847 59.1964 67.119 59.6532C67.0476 59.7245 66.9049 59.8102 66.6907 59.8816C66.4766 59.9529 66.3196 60.0386 66.2054 60.11C66.6622 61.1377 66.9905 62.037 67.1761 62.7793C67.3616 63.5216 67.433 64.2353 67.3759 64.9347C67.3188 65.6199 67.1761 66.3194 66.9477 67.0331C66.7193 67.7468 66.4052 68.5605 66.0341 69.474C65.4917 70.3591 64.9492 71.2013 64.3925 72.0006C63.8358 72.8 63.222 73.528 62.5226 74.1846C61.8374 74.8413 61.0808 75.3552 60.2815 75.7263C59.4821 76.1117 58.5971 76.2973 57.6407 76.2973C57.0983 76.2973 56.5844 76.2259 56.0848 76.0974C55.5852 75.969 55.1712 75.6835 54.8286 75.2695C53.9436 74.3131 53.4582 73.2711 53.344 72.1434C53.2299 71.0157 53.3298 69.9023 53.6295 68.7889C53.8579 68.1037 54.1434 67.4756 54.486 66.8904C55.3282 65.4344 56.2561 64.2067 57.2695 63.1933C58.2973 62.194 59.3536 61.2234 60.467 60.3098ZM62.4227 62.8935C61.9944 63.3217 61.4234 63.9213 60.6954 64.7064C59.9674 65.4915 59.2965 66.3479 58.6542 67.2615C58.0261 68.1751 57.5122 69.0886 57.1125 69.9879C56.7128 70.8872 56.6129 71.6581 56.7985 72.3147C57.5693 71.9721 58.3544 71.4011 59.1538 70.616C59.9532 69.8309 60.6669 68.9744 61.2807 68.0323C61.8945 67.0902 62.3227 66.1624 62.5654 65.2488C62.8081 64.3209 62.7652 63.5358 62.4227 62.8935Z" fill="#292F36" stroke="white" stroke-miterlimit="10"/>
<path d="M51.1599 83.5488C33.3025 83.5488 18.771 69.0173 18.771 51.1599C18.771 33.3024 33.3025 18.771 51.1599 18.771C69.0174 18.771 83.5488 33.3024 83.5488 51.1599C83.5488 69.0173 69.0174 83.5488 51.1599 83.5488ZM51.1599 20.1984C34.0876 20.1984 20.1984 34.0875 20.1984 51.1599C20.1984 68.2322 34.0876 82.1213 51.1599 82.1213C68.2323 82.1213 82.1214 68.2322 82.1214 51.1599C82.1214 34.0875 68.2323 20.1984 51.1599 20.1984Z" fill="#292F36"/>
</svg>
