<svg width="165" height="204" viewBox="0 0 165 204" fill="none" xmlns="http://www.w3.org/2000/svg">
<path fill-rule="evenodd" clip-rule="evenodd" d="M142.672 56.0353C142.672 52.2486 140.793 48.7296 137.646 46.6232L87.8026 13.2561C83.9734 10.694 79.0268 10.694 75.1977 13.2561L25.3545 46.6232C22.208 48.7296 20.3283 52.2486 20.3283 56.0353V139.337C20.3283 142.464 17.7925 145 14.6647 145C11.5359 145 9.00012 142.464 9.00012 139.337V56.0353C9.00012 48.4618 12.7585 41.4249 19.0515 37.2111L68.8958 3.84399C76.5519 -1.28133 86.4484 -1.28133 94.1045 3.84399L143.948 37.2111C150.243 41.4249 154 48.4618 154 56.0353C154 56.3018 153.982 56.5639 153.946 56.8206C153.982 57.0772 154 57.3394 154 57.6059V139.337C154 142.464 151.464 145 148.335 145C145.208 145 142.672 142.464 142.672 139.337V57.6059C142.672 57.3394 142.69 57.0772 142.726 56.8206C142.69 56.5639 142.672 56.3018 142.672 56.0353ZM131.344 108.471C131.344 103.335 129.365 98.5236 125.748 94.7524L125.733 94.7218C125.725 94.7053 125.717 94.6886 125.709 94.672C125.705 94.6628 125.701 94.6536 125.696 94.6444C125.692 94.635 125.688 94.6256 125.683 94.6162C125.676 94.6026 125.67 94.5891 125.663 94.5756C125.659 94.5678 125.655 94.5599 125.65 94.5521L114.931 75.1992C110.977 68.1246 103.192 63.7294 94.6178 63.7294H68.3736C59.8058 63.7294 52.0258 68.1191 48.0573 75.2047L37.4184 94.3785C37.31 94.5743 37.217 94.7734 37.1341 94.9747C33.7264 98.6287 31.6564 103.392 31.6564 108.602V139.337C31.6564 142.464 34.1922 145 37.321 145H52.2969C55.4246 145 57.9604 142.464 57.9604 139.337V136.505H105.04V139.337C105.04 142.464 107.576 145 110.703 145H125.679C128.808 145 131.344 142.464 131.344 139.337V108.471ZM54.0239 87.7984L57.9527 80.7194C59.8788 77.2789 63.9691 75.0564 68.3736 75.0564H94.6178C99.0256 75.0564 103.118 77.2811 105.032 80.7061L108.961 87.7984H54.0239ZM60.2757 112.345C60.2757 116.385 57.0009 119.659 52.9612 119.659C48.9214 119.659 45.6466 116.385 45.6466 112.345C45.6466 108.306 48.9214 105.031 52.9612 105.031C57.0009 105.031 60.2757 108.306 60.2757 112.345ZM110.242 119.659C114.282 119.659 117.556 116.385 117.556 112.345C117.556 108.306 114.282 105.031 110.242 105.031C106.202 105.031 102.927 108.306 102.927 112.345C102.927 116.385 106.202 119.659 110.242 119.659Z" fill="#292D32"/>
<rect x="0.5" y="167.5" width="164" height="36" rx="4.5" stroke="black"/>
<path d="M44.7531 194L39.0651 185.816L41.5851 184.256L48.2811 194H44.7531ZM33.6411 194V177.2H36.7131V194H33.6411ZM35.7771 186.92V184.232H41.4411V186.92H35.7771ZM41.8731 185.96L39.0171 185.576L44.7531 177.2H48.0651L41.8731 185.96ZM53.4508 198.824C52.8268 198.824 52.2028 198.72 51.5788 198.512C50.9548 198.304 50.4348 198.016 50.0188 197.648L51.2188 195.44C51.5228 195.712 51.8668 195.928 52.2508 196.088C52.6348 196.248 53.0268 196.328 53.4268 196.328C53.9708 196.328 54.4108 196.192 54.7468 195.92C55.0828 195.648 55.3948 195.192 55.6828 194.552L56.4268 192.872L56.6668 192.512L61.5148 181.184H64.3948L58.3948 195.032C57.9948 195.992 57.5468 196.752 57.0508 197.312C56.5708 197.872 56.0268 198.264 55.4188 198.488C54.8268 198.712 54.1708 198.824 53.4508 198.824ZM56.0908 194.456L50.3068 181.184H53.4268L58.1308 192.248L56.0908 194.456ZM68.8785 194V181.184H81.1665V194H78.1905V183.032L78.8865 183.728H71.1825L71.8785 183.032V194H68.8785ZM87.6144 194V181.184H90.6144V189.632L97.6944 181.184H100.43V194H97.4304V185.552L90.3744 194H87.6144ZM109.53 194V183.008L110.226 183.728H105.018V181.184H117.018V183.728H111.834L112.53 183.008V194H109.53ZM128.026 185.408C129.674 185.408 130.93 185.776 131.794 186.512C132.658 187.248 133.09 188.288 133.09 189.632C133.09 191.024 132.61 192.112 131.65 192.896C130.69 193.664 129.338 194.04 127.594 194.024L121.594 194V181.184H124.594V185.384L128.026 185.408ZM127.33 191.816C128.21 191.832 128.882 191.648 129.346 191.264C129.81 190.88 130.042 190.32 130.042 189.584C130.042 188.848 129.81 188.32 129.346 188C128.898 187.664 128.226 187.488 127.33 187.472L124.594 187.448V191.792L127.33 191.816Z" fill="#292D32"/>
</svg>
