<svg width="16" height="16" viewBox="0 0 16 16" fill="none" xmlns="http://www.w3.org/2000/svg">
<path d="M10.35 11.865H5.64997C5.27997 11.865 4.90497 11.6 4.77997 11.255L2.70997 5.45999C2.45497 4.72999 2.63997 4.39499 2.83997 4.24499C3.03997 4.09499 3.41497 4.00499 4.04497 4.45499L5.99497 5.84999C6.05497 5.88499 6.10997 5.89999 6.14997 5.88999C6.19497 5.87499 6.22997 5.83499 6.25497 5.76499L7.13497 3.41999C7.39997 2.71999 7.78997 2.61499 7.99997 2.61499C8.20997 2.61499 8.59997 2.71999 8.86497 3.41999L9.74497 5.76499C9.76997 5.82999 9.80497 5.87499 9.84997 5.88999C9.89497 5.90499 9.94997 5.88999 10.005 5.84499L11.835 4.53999C12.505 4.05999 12.895 4.15499 13.11 4.30999C13.32 4.46999 13.515 4.82499 13.24 5.59999L11.22 11.255C11.095 11.6 10.72 11.865 10.35 11.865ZM3.33997 4.90499C3.34997 4.97499 3.36997 5.07499 3.41997 5.20499L5.48997 11C5.50997 11.05 5.59997 11.115 5.64997 11.115H10.35C10.405 11.115 10.495 11.05 10.51 11L12.53 5.34999C12.6 5.15999 12.62 5.02999 12.625 4.95499C12.55 4.97999 12.435 5.03499 12.27 5.15499L10.44 6.45999C10.19 6.63499 9.89497 6.68999 9.62997 6.60999C9.36497 6.52999 9.14997 6.31999 9.03997 6.03499L8.15997 3.68999C8.09497 3.51499 8.03497 3.42999 7.99997 3.38999C7.96497 3.42999 7.90497 3.51499 7.83997 3.68499L6.95997 6.02999C6.85497 6.31499 6.63997 6.52499 6.36997 6.60499C6.10497 6.68499 5.80497 6.62999 5.55997 6.45499L3.60997 5.05999C3.49497 4.97999 3.40497 4.92999 3.33997 4.90499Z" fill="#E2D132"/>
<path d="M10.75 13.375H5.25C5.045 13.375 4.875 13.205 4.875 13C4.875 12.795 5.045 12.625 5.25 12.625H10.75C10.955 12.625 11.125 12.795 11.125 13C11.125 13.205 10.955 13.375 10.75 13.375Z" fill="#E2D132"/>
<path d="M9.25 9.375H6.75C6.545 9.375 6.375 9.205 6.375 9C6.375 8.795 6.545 8.625 6.75 8.625H9.25C9.455 8.625 9.625 8.795 9.625 9C9.625 9.205 9.455 9.375 9.25 9.375Z" fill="#E2D132"/>
<rect x="0.5" y="0.5" width="15" height="15" rx="5.5" stroke="url(#paint0_linear_823_57)"/>
<defs>
<linearGradient id="paint0_linear_823_57" x1="14.7911" y1="-6.22222" x2="-7.26032" y2="0.859682" gradientUnits="userSpaceOnUse">
<stop stop-color="white"/>
<stop offset="1" stop-color="#DBC500"/>
</linearGradient>
</defs>
</svg>
