<svg width="165" height="204" viewBox="0 0 165 204" fill="none" xmlns="http://www.w3.org/2000/svg">
<path d="M78.4791 131.406C44.3437 131.406 16.5521 103.615 16.5521 69.4792C16.5521 35.3438 44.3437 7.55212 78.4791 7.55212C80.9562 7.55212 83.0104 9.60629 83.0104 12.0834C83.0104 14.5605 80.9562 16.6146 78.4791 16.6146C49.2979 16.6146 25.6146 40.3584 25.6146 69.4792C25.6146 98.6 49.2979 122.344 78.4791 122.344C107.66 122.344 131.344 98.6 131.344 69.4792C131.344 67.0021 133.398 64.948 135.875 64.948C138.352 64.948 140.406 67.0021 140.406 69.4792C140.406 103.615 112.615 131.406 78.4791 131.406Z" fill="#292D32"/>
<path d="M141.917 137.448C140.769 137.448 139.621 137.025 138.715 136.119L126.631 124.035C124.879 122.283 124.879 119.383 126.631 117.631C128.383 115.879 131.283 115.879 133.035 117.631L145.119 129.715C146.871 131.467 146.871 134.367 145.119 136.119C144.213 137.025 143.065 137.448 141.917 137.448Z" fill="#292D32"/>
<path d="M114.729 57.6375C109.171 57.6375 96.2416 50.8708 92.2541 38.425C89.5354 29.9062 92.6771 18.7291 102.525 15.5271C106.754 14.1375 111.165 14.8021 114.669 17.0375C118.112 14.8021 122.644 14.1979 126.873 15.5271C136.721 18.7291 139.923 29.9062 137.144 38.425C133.217 51.1125 119.623 57.6375 114.729 57.6375ZM100.894 35.7062C103.673 44.4666 113.098 48.4541 114.79 48.6354C116.723 48.4541 125.967 43.9833 128.504 35.7666C129.894 31.3562 128.504 25.6771 124.094 24.2271C122.221 23.6229 119.683 23.9854 118.475 25.7375C117.629 27.0062 116.3 27.7312 114.79 27.7916C113.46 27.852 111.89 27.1271 111.044 25.9187C109.654 23.925 107.117 23.6229 105.304 24.1666C100.954 25.6166 99.5041 31.2958 100.894 35.7062Z" fill="#292D32"/>
<rect x="0.5" y="167.5" width="164" height="36" rx="4.5" stroke="black"/>
<path d="M4.73303 194V177.2H19.589V194H16.517V179.072L17.237 179.84H7.08503L7.80503 179.072V194H4.73303ZM32.1022 194.168C30.7902 194.168 29.6222 193.888 28.5982 193.328C27.5742 192.752 26.7662 191.968 26.1742 190.976C25.5822 189.984 25.2862 188.856 25.2862 187.592C25.2862 186.312 25.5822 185.184 26.1742 184.208C26.7662 183.216 27.5742 182.44 28.5982 181.88C29.6222 181.32 30.7902 181.04 32.1022 181.04C33.4302 181.04 34.6062 181.32 35.6302 181.88C36.6702 182.44 37.4782 183.208 38.0542 184.184C38.6462 185.16 38.9422 186.296 38.9422 187.592C38.9422 188.856 38.6462 189.984 38.0542 190.976C37.4782 191.968 36.6702 192.752 35.6302 193.328C34.6062 193.888 33.4302 194.168 32.1022 194.168ZM32.1022 191.6C32.8382 191.6 33.4942 191.44 34.0702 191.12C34.6462 190.8 35.0942 190.336 35.4142 189.728C35.7502 189.12 35.9182 188.408 35.9182 187.592C35.9182 186.76 35.7502 186.048 35.4142 185.456C35.0942 184.848 34.6462 184.384 34.0702 184.064C33.4942 183.744 32.8462 183.584 32.1262 183.584C31.3902 183.584 30.7342 183.744 30.1582 184.064C29.5982 184.384 29.1502 184.848 28.8142 185.456C28.4782 186.048 28.3102 186.76 28.3102 187.592C28.3102 188.408 28.4782 189.12 28.8142 189.728C29.1502 190.336 29.5982 190.8 30.1582 191.12C30.7342 191.44 31.3822 191.6 32.1022 191.6ZM52.9492 192.608V183.728H48.0292L47.9572 185.792C47.9252 186.528 47.8772 187.24 47.8132 187.928C47.7492 188.6 47.6452 189.224 47.5012 189.8C47.3572 190.36 47.1492 190.824 46.8772 191.192C46.6052 191.56 46.2452 191.8 45.7972 191.912L42.8212 191.456C43.3012 191.456 43.6852 191.304 43.9732 191C44.2772 190.68 44.5092 190.248 44.6692 189.704C44.8452 189.144 44.9732 188.512 45.0532 187.808C45.1332 187.088 45.1892 186.344 45.2212 185.576L45.3892 181.184H55.9492V192.608H52.9492ZM42.3652 196.856V191.456H57.8452V196.856H55.0372V194H45.1492V196.856H42.3652ZM68.6366 194.168C67.3246 194.168 66.1566 193.888 65.1326 193.328C64.1086 192.752 63.3006 191.968 62.7086 190.976C62.1166 189.984 61.8206 188.856 61.8206 187.592C61.8206 186.312 62.1166 185.184 62.7086 184.208C63.3006 183.216 64.1086 182.44 65.1326 181.88C66.1566 181.32 67.3246 181.04 68.6366 181.04C69.9646 181.04 71.1406 181.32 72.1646 181.88C73.2046 182.44 74.0126 183.208 74.5886 184.184C75.1806 185.16 75.4766 186.296 75.4766 187.592C75.4766 188.856 75.1806 189.984 74.5886 190.976C74.0126 191.968 73.2046 192.752 72.1646 193.328C71.1406 193.888 69.9646 194.168 68.6366 194.168ZM68.6366 191.6C69.3726 191.6 70.0286 191.44 70.6046 191.12C71.1806 190.8 71.6286 190.336 71.9486 189.728C72.2846 189.12 72.4526 188.408 72.4526 187.592C72.4526 186.76 72.2846 186.048 71.9486 185.456C71.6286 184.848 71.1806 184.384 70.6046 184.064C70.0286 183.744 69.3806 183.584 68.6606 183.584C67.9246 183.584 67.2686 183.744 66.6926 184.064C66.1326 184.384 65.6846 184.848 65.3486 185.456C65.0126 186.048 64.8446 186.76 64.8446 187.592C64.8446 188.408 65.0126 189.12 65.3486 189.728C65.6846 190.336 66.1326 190.8 66.6926 191.12C67.2686 191.44 67.9166 191.6 68.6366 191.6ZM86.9602 194.24C85.9042 194.24 84.9602 194.08 84.1282 193.76C83.2962 193.44 82.5762 192.952 81.9682 192.296C81.3762 191.624 80.9202 190.776 80.6002 189.752C80.2802 188.728 80.1202 187.512 80.1202 186.104C80.1202 185.08 80.2082 184.144 80.3842 183.296C80.5602 182.448 80.8242 181.688 81.1762 181.016C81.5282 180.328 81.9682 179.72 82.4962 179.192C83.0402 178.664 83.6722 178.224 84.3922 177.872C85.1122 177.52 85.9282 177.248 86.8402 177.056L92.7922 175.784L93.2242 178.472L87.8242 179.576C87.5202 179.64 87.1522 179.736 86.7202 179.864C86.3042 179.976 85.8722 180.152 85.4242 180.392C84.9922 180.616 84.5842 180.944 84.2002 181.376C83.8322 181.792 83.5282 182.336 83.2882 183.008C83.0642 183.664 82.9522 184.488 82.9522 185.48C82.9522 185.784 82.9602 186.016 82.9762 186.176C83.0082 186.32 83.0322 186.48 83.0482 186.656C83.0802 186.816 83.0962 187.056 83.0962 187.376L81.9682 186.2C82.2882 185.384 82.7282 184.688 83.2882 184.112C83.8642 183.52 84.5282 183.072 85.2802 182.768C86.0482 182.448 86.8802 182.288 87.7762 182.288C88.9762 182.288 90.0402 182.536 90.9682 183.032C91.8962 183.528 92.6242 184.224 93.1522 185.12C93.6802 186.016 93.9442 187.032 93.9442 188.168C93.9442 189.352 93.6562 190.4 93.0802 191.312C92.5042 192.224 91.6882 192.944 90.6322 193.472C89.5922 193.984 88.3682 194.24 86.9602 194.24ZM87.2002 191.816C87.9202 191.816 88.5522 191.664 89.0962 191.36C89.6562 191.04 90.0882 190.608 90.3922 190.064C90.7122 189.52 90.8722 188.912 90.8722 188.24C90.8722 187.568 90.7122 186.984 90.3922 186.488C90.0882 185.976 89.6562 185.568 89.0962 185.264C88.5522 184.96 87.9042 184.808 87.1522 184.808C86.4322 184.808 85.7842 184.952 85.2082 185.24C84.6482 185.528 84.2082 185.928 83.8882 186.44C83.5842 186.936 83.4322 187.512 83.4322 188.168C83.4322 188.84 83.5922 189.456 83.9122 190.016C84.2322 190.576 84.6722 191.016 85.2322 191.336C85.8082 191.656 86.4642 191.816 87.2002 191.816ZM106.352 194.168C105.312 194.168 104.36 193.928 103.496 193.448C102.648 192.968 101.968 192.248 101.456 191.288C100.96 190.312 100.712 189.08 100.712 187.592C100.712 186.088 100.952 184.856 101.432 183.896C101.928 182.936 102.6 182.224 103.448 181.76C104.296 181.28 105.264 181.04 106.352 181.04C107.616 181.04 108.728 181.312 109.688 181.856C110.664 182.4 111.432 183.16 111.992 184.136C112.568 185.112 112.856 186.264 112.856 187.592C112.856 188.92 112.568 190.08 111.992 191.072C111.432 192.048 110.664 192.808 109.688 193.352C108.728 193.896 107.616 194.168 106.352 194.168ZM99.248 198.656V181.184H102.104V184.208L102.008 187.616L102.248 191.024V198.656H99.248ZM106.016 191.6C106.736 191.6 107.376 191.44 107.936 191.12C108.512 190.8 108.968 190.336 109.304 189.728C109.64 189.12 109.808 188.408 109.808 187.592C109.808 186.76 109.64 186.048 109.304 185.456C108.968 184.848 108.512 184.384 107.936 184.064C107.376 183.744 106.736 183.584 106.016 183.584C105.296 183.584 104.648 183.744 104.072 184.064C103.496 184.384 103.04 184.848 102.704 185.456C102.368 186.048 102.2 186.76 102.2 187.592C102.2 188.408 102.368 189.12 102.704 189.728C103.04 190.336 103.496 190.8 104.072 191.12C104.648 191.44 105.296 191.6 106.016 191.6ZM125.854 194V191.408L125.686 190.856V186.32C125.686 185.44 125.422 184.76 124.894 184.28C124.366 183.784 123.566 183.536 122.494 183.536C121.774 183.536 121.062 183.648 120.358 183.872C119.67 184.096 119.086 184.408 118.606 184.808L117.43 182.624C118.118 182.096 118.934 181.704 119.878 181.448C120.838 181.176 121.83 181.04 122.854 181.04C124.71 181.04 126.142 181.488 127.15 182.384C128.174 183.264 128.686 184.632 128.686 186.488V194H125.854ZM121.822 194.168C120.862 194.168 120.022 194.008 119.302 193.688C118.582 193.352 118.022 192.896 117.622 192.32C117.238 191.728 117.046 191.064 117.046 190.328C117.046 189.608 117.214 188.96 117.55 188.384C117.902 187.808 118.47 187.352 119.254 187.016C120.038 186.68 121.078 186.512 122.374 186.512H126.094V188.504H122.59C121.566 188.504 120.878 188.672 120.526 189.008C120.174 189.328 119.998 189.728 119.998 190.208C119.998 190.752 120.214 191.184 120.646 191.504C121.078 191.824 121.678 191.984 122.446 191.984C123.182 191.984 123.838 191.816 124.414 191.48C125.006 191.144 125.43 190.648 125.686 189.992L126.19 191.792C125.902 192.544 125.382 193.128 124.63 193.544C123.894 193.96 122.958 194.168 121.822 194.168ZM137.462 194V183.008L138.158 183.728H132.95V181.184H144.95V183.728H139.766L140.462 183.008V194H137.462ZM155.958 185.408C157.606 185.408 158.862 185.776 159.726 186.512C160.59 187.248 161.022 188.288 161.022 189.632C161.022 191.024 160.542 192.112 159.582 192.896C158.622 193.664 157.27 194.04 155.526 194.024L149.526 194V181.184H152.526V185.384L155.958 185.408ZM155.262 191.816C156.142 191.832 156.814 191.648 157.278 191.264C157.742 190.88 157.974 190.32 157.974 189.584C157.974 188.848 157.742 188.32 157.278 188C156.83 187.664 156.158 187.488 155.262 187.472L152.526 187.448V191.792L155.262 191.816Z" fill="#292D32"/>
</svg>
