<svg width="165" height="204" viewBox="0 0 165 204" fill="none" xmlns="http://www.w3.org/2000/svg">
<path d="M70.4916 81.8042H61.4291C54.4812 81.8042 48.8625 76.0042 48.8625 68.8146C48.8625 66.3375 50.9166 64.2833 53.3937 64.2833C55.8708 64.2833 57.925 66.3375 57.925 68.8146C57.925 70.9896 59.4958 72.7417 61.4291 72.7417H70.4916C71.8812 72.7417 72.9687 71.4729 72.9687 69.9021C72.9687 67.7875 72.6062 67.6667 71.2166 67.1833L56.6562 62.1083C51.4 60.2958 48.8021 56.6104 48.8021 50.8708C48.8021 44.3458 53.9979 38.9688 60.3416 38.9688H69.4041C76.3521 38.9688 81.9708 44.7688 81.9708 51.9583C81.9708 54.4354 79.9166 56.4896 77.4396 56.4896C74.9625 56.4896 72.9083 54.4354 72.9083 51.9583C72.9083 49.7833 71.3375 48.0312 69.4041 48.0312H60.3416C58.9521 48.0312 57.8646 49.3 57.8646 50.8708C57.8646 52.9854 58.2271 53.1063 59.6166 53.5896L74.1771 58.6646C79.4333 60.5375 81.9708 64.2229 81.9708 69.9021C82.0312 76.4875 76.8354 81.8042 70.4916 81.8042Z" fill="#292D32"/>
<path d="M65.4167 86.6375C62.9396 86.6375 60.8854 84.5833 60.8854 82.1062V77.6354C60.8854 75.1583 62.9396 73.1041 65.4167 73.1041C67.8938 73.1041 69.9479 75.1583 69.9479 77.6354V82.1062C69.9479 84.6437 67.8938 86.6375 65.4167 86.6375Z" fill="#292D32"/>
<path d="M65.4167 47.9708C62.9396 47.9708 60.8854 45.9166 60.8854 43.4396V38.7271C60.8854 36.25 62.9396 34.1958 65.4167 34.1958C67.8938 34.1958 69.9479 36.25 69.9479 38.7271V43.4396C69.9479 45.9166 67.8938 47.9708 65.4167 47.9708Z" fill="#292D32"/>
<path d="M65.3562 113.1C36.2354 113.1 12.5521 89.4167 12.5521 60.2959C12.5521 31.175 36.2354 7.4917 65.3562 7.4917C94.4771 7.4917 118.16 31.175 118.16 60.2959C118.16 89.4167 94.4166 113.1 65.3562 113.1ZM65.3562 16.6146C41.25 16.6146 21.6146 36.25 21.6146 60.3563C21.6146 84.4625 41.25 104.038 65.3562 104.038C89.4625 104.038 109.098 84.4021 109.098 60.2959C109.098 36.1896 89.4625 16.6146 65.3562 16.6146Z" fill="#292D32"/>
<path d="M107.829 137.267C96.6521 137.267 86.1396 131.829 79.675 122.646C78.225 120.592 78.7083 117.752 80.7625 116.302C82.8167 114.852 85.6563 115.335 87.1063 117.39C91.8792 124.156 99.6125 128.144 107.829 128.144C121.846 128.144 133.204 116.785 133.204 102.769C133.204 94.6125 129.217 86.8792 122.571 82.1062C120.517 80.6562 120.094 77.8167 121.544 75.7625C122.994 73.7083 125.833 73.2854 127.888 74.7354C136.89 81.2 142.267 91.6521 142.267 102.769C142.267 121.86 126.86 137.267 107.829 137.267Z" fill="#292D32"/>
<rect x="0.5" y="167.5" width="164" height="36" rx="4.5" stroke="black"/>
<path d="M23.3127 193V176.2H38.1687V193H35.0967V178.072L35.8167 178.84H25.6647L26.3847 178.072V193H23.3127ZM52.0739 193.168C51.0339 193.168 50.0819 192.928 49.2179 192.448C48.3699 191.968 47.6899 191.248 47.1779 190.288C46.6819 189.312 46.4339 188.08 46.4339 186.592C46.4339 185.088 46.6739 183.856 47.1539 182.896C47.6499 181.936 48.3219 181.224 49.1699 180.76C50.0179 180.28 50.9859 180.04 52.0739 180.04C53.3379 180.04 54.4499 180.312 55.4099 180.856C56.3859 181.4 57.1539 182.16 57.7139 183.136C58.2899 184.112 58.5779 185.264 58.5779 186.592C58.5779 187.92 58.2899 189.08 57.7139 190.072C57.1539 191.048 56.3859 191.808 55.4099 192.352C54.4499 192.896 53.3379 193.168 52.0739 193.168ZM44.9699 197.656V180.184H47.8259V183.208L47.7299 186.616L47.9699 190.024V197.656H44.9699ZM51.7379 190.6C52.4579 190.6 53.0979 190.44 53.6579 190.12C54.2339 189.8 54.6899 189.336 55.0259 188.728C55.3619 188.12 55.5299 187.408 55.5299 186.592C55.5299 185.76 55.3619 185.048 55.0259 184.456C54.6899 183.848 54.2339 183.384 53.6579 183.064C53.0979 182.744 52.4579 182.584 51.7379 182.584C51.0179 182.584 50.3699 182.744 49.7939 183.064C49.2179 183.384 48.7619 183.848 48.4259 184.456C48.0899 185.048 47.9219 185.76 47.9219 186.592C47.9219 187.408 48.0899 188.12 48.4259 188.728C48.7619 189.336 49.2179 189.8 49.7939 190.12C50.3699 190.44 51.0179 190.6 51.7379 190.6ZM69.6757 193.168C68.3637 193.168 67.1957 192.888 66.1717 192.328C65.1477 191.752 64.3397 190.968 63.7477 189.976C63.1557 188.984 62.8597 187.856 62.8597 186.592C62.8597 185.312 63.1557 184.184 63.7477 183.208C64.3397 182.216 65.1477 181.44 66.1717 180.88C67.1957 180.32 68.3637 180.04 69.6757 180.04C71.0037 180.04 72.1797 180.32 73.2037 180.88C74.2437 181.44 75.0517 182.208 75.6277 183.184C76.2197 184.16 76.5157 185.296 76.5157 186.592C76.5157 187.856 76.2197 188.984 75.6277 189.976C75.0517 190.968 74.2437 191.752 73.2037 192.328C72.1797 192.888 71.0037 193.168 69.6757 193.168ZM69.6757 190.6C70.4117 190.6 71.0677 190.44 71.6437 190.12C72.2197 189.8 72.6677 189.336 72.9877 188.728C73.3237 188.12 73.4917 187.408 73.4917 186.592C73.4917 185.76 73.3237 185.048 72.9877 184.456C72.6677 183.848 72.2197 183.384 71.6437 183.064C71.0677 182.744 70.4197 182.584 69.6997 182.584C68.9637 182.584 68.3077 182.744 67.7317 183.064C67.1717 183.384 66.7237 183.848 66.3877 184.456C66.0517 185.048 65.8837 185.76 65.8837 186.592C65.8837 187.408 66.0517 188.12 66.3877 188.728C66.7237 189.336 67.1717 189.8 67.7317 190.12C68.3077 190.44 68.9557 190.6 69.6757 190.6ZM90.5227 191.608V182.728H85.6027L85.5307 184.792C85.4987 185.528 85.4507 186.24 85.3867 186.928C85.3227 187.6 85.2187 188.224 85.0747 188.8C84.9307 189.36 84.7227 189.824 84.4507 190.192C84.1787 190.56 83.8187 190.8 83.3707 190.912L80.3947 190.456C80.8747 190.456 81.2587 190.304 81.5467 190C81.8507 189.68 82.0827 189.248 82.2427 188.704C82.4187 188.144 82.5467 187.512 82.6267 186.808C82.7067 186.088 82.7627 185.344 82.7947 184.576L82.9627 180.184H93.5227V191.608H90.5227ZM79.9387 195.856V190.456H95.4187V195.856H92.6107V193H82.7227V195.856H79.9387ZM108.274 193V190.408L108.106 189.856V185.32C108.106 184.44 107.842 183.76 107.314 183.28C106.786 182.784 105.986 182.536 104.914 182.536C104.194 182.536 103.482 182.648 102.778 182.872C102.09 183.096 101.506 183.408 101.026 183.808L99.85 181.624C100.538 181.096 101.354 180.704 102.298 180.448C103.258 180.176 104.25 180.04 105.274 180.04C107.13 180.04 108.562 180.488 109.57 181.384C110.594 182.264 111.106 183.632 111.106 185.488V193H108.274ZM104.242 193.168C103.282 193.168 102.442 193.008 101.722 192.688C101.002 192.352 100.442 191.896 100.042 191.32C99.658 190.728 99.466 190.064 99.466 189.328C99.466 188.608 99.634 187.96 99.97 187.384C100.322 186.808 100.89 186.352 101.674 186.016C102.458 185.68 103.498 185.512 104.794 185.512H108.514V187.504H105.01C103.986 187.504 103.298 187.672 102.946 188.008C102.594 188.328 102.418 188.728 102.418 189.208C102.418 189.752 102.634 190.184 103.066 190.504C103.498 190.824 104.098 190.984 104.866 190.984C105.602 190.984 106.258 190.816 106.834 190.48C107.426 190.144 107.85 189.648 108.106 188.992L108.61 190.792C108.322 191.544 107.802 192.128 107.05 192.544C106.314 192.96 105.378 193.168 104.242 193.168ZM119.882 193V182.008L120.578 182.728H115.37V180.184H127.37V182.728H122.186L122.882 182.008V193H119.882ZM138.378 184.408C140.026 184.408 141.282 184.776 142.146 185.512C143.01 186.248 143.442 187.288 143.442 188.632C143.442 190.024 142.962 191.112 142.002 191.896C141.042 192.664 139.69 193.04 137.946 193.024L131.946 193V180.184H134.946V184.384L138.378 184.408ZM137.682 190.816C138.562 190.832 139.234 190.648 139.698 190.264C140.162 189.88 140.394 189.32 140.394 188.584C140.394 187.848 140.162 187.32 139.698 187C139.25 186.664 138.578 186.488 137.682 186.472L134.946 186.448V190.792L137.682 190.816Z" fill="#292D32"/>
</svg>
