<svg width="28" height="28" viewBox="0 0 28 28" fill="none" xmlns="http://www.w3.org/2000/svg">
<path d="M13.9985 7.06543C12.159 7.06543 10.3948 7.79619 9.09401 9.09694C7.79326 10.3977 7.0625 12.1619 7.0625 14.0014C7.0625 15.841 7.79326 17.6052 9.09401 18.9059C10.3948 20.2067 12.159 20.9374 13.9985 20.9374C15.838 20.9374 17.6022 20.2067 18.903 18.9059C20.2037 17.6052 20.9345 15.841 20.9345 14.0014C20.9345 12.1619 20.2037 10.3977 18.903 9.09694C17.6022 7.79619 15.838 7.06543 13.9985 7.06543ZM13.9985 18.5059C12.8034 18.5059 11.6573 18.0312 10.8123 17.1862C9.96724 16.3411 9.4925 15.195 9.4925 13.9999C9.4925 12.8049 9.96724 11.6587 10.8123 10.8137C11.6573 9.96867 12.8034 9.49393 13.9985 9.49393C15.1936 9.49393 16.3397 9.96867 17.1847 10.8137C18.0298 11.6587 18.5045 12.8049 18.5045 13.9999C18.5045 15.195 18.0298 16.3411 17.1847 17.1862C16.3397 18.0312 15.1936 18.5059 13.9985 18.5059Z" fill="white" fill-opacity="0.78"/>
<path d="M21.209 8.42748C22.102 8.42748 22.826 7.70353 22.826 6.81048C22.826 5.91744 22.102 5.19348 21.209 5.19348C20.316 5.19348 19.592 5.91744 19.592 6.81048C19.592 7.70353 20.316 8.42748 21.209 8.42748Z" fill="white" fill-opacity="0.78"/>
<path d="M26.7995 5.16645C26.4523 4.26972 25.9216 3.45537 25.2415 2.77553C24.5614 2.0957 23.7469 1.56535 22.85 1.21845C21.8005 0.824482 20.6918 0.611458 19.571 0.588446C18.1265 0.525446 17.669 0.507446 14.006 0.507446C10.343 0.507446 9.8735 0.507446 8.44101 0.588446C7.32109 0.610281 6.21314 0.823349 5.16501 1.21845C4.26791 1.56495 3.45315 2.09515 2.77301 2.77504C2.09286 3.45493 1.56235 4.26948 1.21551 5.16645C0.821463 6.21587 0.608928 7.3247 0.587006 8.44545C0.522506 9.88845 0.503006 10.3459 0.503006 14.0104C0.503006 17.6734 0.503006 18.1399 0.587006 19.5754C0.609506 20.6974 0.821006 21.8044 1.21551 22.8559C1.56332 23.7526 2.09435 24.5668 2.77466 25.2466C3.45497 25.9264 4.2696 26.4568 5.16651 26.8039C6.21266 27.2137 7.32106 27.442 8.444 27.4789C9.8885 27.5419 10.346 27.5614 14.009 27.5614C17.672 27.5614 18.1415 27.5614 19.574 27.4789C20.6947 27.4562 21.8033 27.2437 22.853 26.8505C23.7496 26.5027 24.5639 25.9719 25.244 25.2919C25.924 24.6119 26.4548 23.7976 26.8025 22.9009C27.197 21.8509 27.4085 20.7439 27.431 19.6219C27.4955 18.1789 27.515 17.7214 27.515 14.0569C27.515 10.3924 27.515 9.92745 27.431 8.49195C27.4135 7.35536 27.1999 6.23032 26.7995 5.16645V5.16645ZM24.9725 19.4644C24.9628 20.3289 24.805 21.1853 24.506 21.9964C24.2807 22.5798 23.9359 23.1095 23.4936 23.5515C23.0513 23.9935 22.5214 24.338 21.938 24.5629C21.1358 24.8606 20.2885 25.0184 19.433 25.0294C18.008 25.0954 17.606 25.112 13.952 25.112C10.295 25.112 9.92151 25.1119 8.46951 25.0294C7.6144 25.019 6.76749 24.8612 5.96601 24.5629C5.38054 24.3394 4.84851 23.9955 4.40434 23.5534C3.96017 23.1113 3.61376 22.5809 3.38751 21.9964C3.09268 21.194 2.93497 20.3477 2.92101 19.4929C2.85651 18.0679 2.84151 17.6659 2.84151 14.0119C2.84151 10.3564 2.84151 9.98295 2.92101 8.52945C2.9307 7.66548 3.08849 6.80958 3.38751 5.99895C3.84501 4.81545 4.78251 3.88395 5.96601 3.43095C6.76789 3.13416 7.61454 2.97639 8.46951 2.96445C9.89601 2.89995 10.2965 2.88195 13.952 2.88195C17.6075 2.88195 17.9825 2.88195 19.433 2.96445C20.2886 2.97474 21.136 3.13255 21.938 3.43095C22.5214 3.65636 23.0512 4.00125 23.4935 4.44349C23.9357 4.88573 24.2806 5.41555 24.506 5.99895C24.8008 6.80137 24.9585 7.64769 24.9725 8.50245C25.037 9.92895 25.0535 10.3294 25.0535 13.9849C25.0535 17.6389 25.0535 18.0319 24.989 19.4659H24.9725V19.4644Z" fill="white" fill-opacity="0.78"/>
</svg>
