<svg width="30" height="24" viewBox="0 0 30 24" fill="none" xmlns="http://www.w3.org/2000/svg">
<path d="M26.4495 5.99557C26.469 6.25807 26.469 6.51907 26.469 6.78007C26.469 14.7676 20.3895 23.9716 9.279 23.9716C5.856 23.9716 2.676 22.9801 0 21.2581C0.486 21.3136 0.954 21.3331 1.4595 21.3331C4.17899 21.3396 6.82147 20.4303 8.961 18.7516C7.70013 18.7287 6.47786 18.3128 5.46486 17.5617C4.45185 16.8106 3.69868 15.7619 3.3105 14.5621C3.684 14.6176 4.059 14.6551 4.452 14.6551C4.9935 14.6551 5.538 14.5801 6.0435 14.4496C4.67514 14.1733 3.44471 13.4316 2.56143 12.3506C1.67815 11.2696 1.19654 9.91604 1.1985 8.52007V8.44507C2.004 8.89357 2.9385 9.17407 3.9285 9.21157C3.09913 8.66044 2.41908 7.9126 1.94901 7.03475C1.47894 6.1569 1.23347 5.17635 1.2345 4.18057C1.2345 3.05857 1.533 2.02957 2.0565 1.13257C3.57471 3.0001 5.46825 4.52791 7.6145 5.61705C9.76075 6.7062 12.1118 7.33239 14.5155 7.45507C14.4225 7.00507 14.3655 6.53857 14.3655 6.07057C14.3651 5.27701 14.5211 4.49115 14.8246 3.75793C15.1281 3.0247 15.5732 2.35848 16.1343 1.79735C16.6954 1.23622 17.3616 0.791181 18.0949 0.487682C18.8281 0.184183 19.6139 0.0281709 20.4075 0.0285652C22.1475 0.0285652 23.718 0.757565 24.822 1.93657C26.1747 1.67499 27.4718 1.1812 28.656 0.477065C28.2051 1.87329 27.2606 3.05722 25.9995 3.80707C27.1992 3.67023 28.3717 3.35474 29.478 2.87107C28.6517 4.07571 27.6278 5.13208 26.4495 5.99557Z" fill="white" fill-opacity="0.78"/>
</svg>
